<svg width="1055" height="727" viewBox="0 0 1055 727" fill="none" xmlns="http://www.w3.org/2000/svg">
<rect width="1055" height="727" fill="white"/>
<rect y="126" width="81" height="549" fill="#333A42"/>
<rect x="974" y="126" width="81" height="549" fill="#333A42"/>
<rect x="109" y="203" width="37" height="394" fill="#34A48D"/>
<rect x="174" y="203" width="88" height="394" fill="#2D6C7B"/>
<rect x="290" y="203" width="27" height="394" fill="#CF452B"/>
<rect x="743" y="203" width="82" height="394" fill="#34A48D"/>
<rect x="853" y="203" width="24" height="394" fill="#F2F700"/>
<rect x="905" y="203" width="41" height="394" fill="#34A48D"/>
<path d="M145.968 659.888C145.968 657.248 145.92 655.136 145.824 653.552C145.728 651.92 145.536 650.672 145.248 649.808C145.008 648.896 144.672 648.272 144.24 647.936C143.856 647.552 143.352 647.264 142.728 647.072V646.28C143.352 646.04 144.048 645.632 144.816 645.056C145.584 644.432 146.328 643.76 147.048 643.04C147.768 642.32 148.416 641.576 148.992 640.808C149.568 640.04 150 639.368 150.288 638.792C151.296 639.464 152.208 640.352 153.024 641.456C153.84 642.56 154.488 643.664 154.968 644.768C155.832 644.192 156.816 643.616 157.92 643.04C159.024 642.464 160.176 641.936 161.376 641.456C162.624 640.928 163.872 640.472 165.12 640.088C166.416 639.656 167.688 639.296 168.936 639.008C170.088 640.256 171.336 641.288 172.68 642.104C174.024 642.92 175.392 643.52 176.784 643.904C176.256 645.92 175.944 647.84 175.848 649.664C175.752 651.44 175.704 653.24 175.704 655.064C175.704 657.32 175.728 659.288 175.776 660.968C175.824 662.648 175.896 664.088 175.992 665.288C176.088 666.488 176.208 667.472 176.352 668.24C176.496 668.96 176.688 669.536 176.928 669.968C174.768 670.352 172.56 671.096 170.304 672.2C168.096 673.256 165.888 674.552 163.68 676.088C162.192 675.464 160.776 674.984 159.432 674.648C158.136 674.312 156.768 674.072 155.328 673.928V681.2C155.328 682.448 155.352 683.528 155.4 684.44C155.496 685.4 155.616 686.288 155.76 687.104C155.904 687.968 156.12 688.76 156.408 689.48C156.696 690.248 157.056 691.04 157.488 691.856C156.528 691.52 155.4 691.352 154.104 691.352C152.52 691.352 150.84 691.616 149.064 692.144C147.336 692.672 145.464 693.416 143.448 694.376C144.408 693.224 145.056 691.688 145.392 689.768C145.776 687.848 145.968 685.64 145.968 683.144V659.888ZM161.304 668.96C161.88 668.432 162.648 667.856 163.608 667.232C164.616 666.56 165.504 666.056 166.272 665.72C166.176 664.664 166.104 663.248 166.056 661.472C166.056 659.648 166.056 657.92 166.056 656.288C166.056 654.752 166.08 653.216 166.128 651.68C166.224 650.144 166.32 648.728 166.416 647.432C165.456 647.48 164.424 647.624 163.32 647.864C162.264 648.056 161.232 648.296 160.224 648.584C159.216 648.872 158.28 649.208 157.416 649.592C156.552 649.928 155.856 650.264 155.328 650.6V667.52C156.096 667.568 157.056 667.736 158.208 668.024C159.36 668.312 160.392 668.624 161.304 668.96ZM196.523 676.304C195.611 675.632 194.483 675.008 193.139 674.432C191.795 673.856 190.403 673.376 188.963 672.992C187.571 672.56 186.203 672.224 184.859 671.984C183.563 671.744 182.483 671.624 181.619 671.624C182.003 671 182.339 670.136 182.627 669.032C182.915 667.88 183.131 666.656 183.275 665.36C183.467 664.016 183.587 662.648 183.635 661.256C183.731 659.864 183.779 658.592 183.779 657.44C183.779 654.512 183.587 652.088 183.203 650.168C182.867 648.2 182.531 646.664 182.195 645.56C184.259 645.176 186.131 644.432 187.811 643.328C189.539 642.224 191.243 640.832 192.923 639.152C194.891 639.536 197.315 639.872 200.195 640.16C203.075 640.4 205.931 640.568 208.763 640.664C208.619 641.528 208.547 642.608 208.547 643.904C208.547 644.912 208.595 646.016 208.691 647.216C208.787 648.368 208.907 649.52 209.051 650.672C209.195 651.824 209.387 652.928 209.627 653.984C209.867 655.04 210.131 655.952 210.419 656.72C207.491 656.96 204.515 657.296 201.491 657.728C198.467 658.112 195.515 658.544 192.635 659.024C192.587 660.416 192.491 661.784 192.347 663.128C192.203 664.472 192.083 665.648 191.987 666.656C192.563 666.896 193.283 667.112 194.147 667.304C195.059 667.496 196.019 667.688 197.027 667.88C198.035 668.024 199.019 668.168 199.979 668.312C200.939 668.408 201.755 668.48 202.427 668.528C202.667 667.04 203.243 665.768 204.155 664.712C205.115 663.656 206.723 662.792 208.979 662.12C208.931 662.696 208.907 663.272 208.907 663.848C208.907 664.376 208.907 664.904 208.907 665.432C208.907 667.064 208.955 668.36 209.051 669.32C209.195 670.232 209.435 671.144 209.771 672.056C208.859 672.152 207.779 672.344 206.531 672.632C205.283 672.872 204.035 673.208 202.787 673.64C201.539 674.024 200.339 674.432 199.187 674.864C198.083 675.344 197.195 675.824 196.523 676.304ZM191.915 645.632C192.155 647.648 192.323 649.424 192.419 650.96C192.563 652.496 192.659 653.912 192.707 655.208L201.131 653.12C200.891 652.16 200.675 651.152 200.483 650.096C200.339 649.04 200.267 647.96 200.267 646.856C199.163 646.856 197.819 646.76 196.235 646.568C194.699 646.328 193.259 646.016 191.915 645.632ZM227.047 647.216C229.111 645.872 230.959 644.528 232.591 643.184C234.223 641.84 235.903 640.256 237.631 638.432C238.447 639.2 239.191 639.896 239.863 640.52C240.535 641.096 241.207 641.624 241.879 642.104C242.599 642.584 243.343 643.064 244.111 643.544C244.879 643.976 245.767 644.432 246.775 644.912C246.583 645.584 246.415 646.304 246.271 647.072C246.175 647.792 246.079 648.728 245.983 649.88C245.935 651.032 245.887 652.448 245.839 654.128C245.791 655.808 245.767 657.896 245.767 660.392C245.767 662.504 245.767 664.256 245.767 665.648C245.815 666.992 245.863 668.096 245.911 668.96C245.959 669.824 246.031 670.544 246.127 671.12C246.223 671.648 246.319 672.152 246.415 672.632C245.455 672.968 244.471 673.424 243.463 674C242.503 674.576 241.519 675.224 240.511 675.944C239.551 676.664 238.639 677.408 237.775 678.176C236.911 678.944 236.143 679.688 235.471 680.408L235.039 679.976C235.327 679.016 235.591 677.816 235.831 676.376C236.071 674.984 236.263 673.592 236.407 672.2C236.551 670.76 236.671 669.44 236.767 668.24C236.863 667.04 236.911 666.176 236.911 665.648C236.911 662.912 236.887 660.176 236.839 657.44C236.839 654.704 236.839 651.968 236.839 649.232L235.903 648.224L227.047 652.184V667.664C227.047 670.688 227.695 672.44 228.991 672.92V674H215.743V672.92C216.319 672.68 216.775 672.2 217.111 671.48C217.495 670.712 217.687 669.656 217.687 668.312V643.184L215.023 642.032V641.24C216.703 641 218.527 640.688 220.495 640.304C222.463 639.872 224.215 639.464 225.751 639.08L227.047 641.24V647.216ZM271 676.232C270.136 675.704 268.96 675.152 267.472 674.576C265.984 674.048 264.352 673.568 262.576 673.136C260.848 672.704 259.096 672.344 257.32 672.056C255.544 671.768 253.936 671.624 252.496 671.624C252.832 671.144 253.12 670.424 253.36 669.464C253.648 668.504 253.888 667.4 254.08 666.152C254.272 664.856 254.416 663.464 254.512 661.976C254.608 660.488 254.656 658.952 254.656 657.368C254.656 654.776 254.512 652.352 254.224 650.096C253.984 647.792 253.6 645.8 253.072 644.12C255.664 643.688 258.328 643.04 261.064 642.176C263.8 641.264 266.344 640.256 268.696 639.152C270.28 640.16 272.128 641.048 274.24 641.816C276.352 642.584 278.488 643.16 280.648 643.544C279.736 645.368 278.464 646.856 276.832 648.008C275.248 649.112 273.616 649.664 271.936 649.664C270.832 649.664 269.512 649.28 267.976 648.512C266.44 647.744 264.928 646.664 263.44 645.272C263.68 647.096 263.848 648.92 263.944 650.744C264.088 652.52 264.16 654.32 264.16 656.144C264.16 657.728 264.088 659.48 263.944 661.4C263.848 663.272 263.68 664.952 263.44 666.44C264.496 666.872 265.84 667.28 267.472 667.664C269.152 668.048 270.664 668.288 272.008 668.384C272.296 666.56 273.04 664.976 274.24 663.632C275.488 662.24 277.12 661.256 279.136 660.68C279.088 661.064 279.064 661.592 279.064 662.264C279.064 662.936 279.064 663.752 279.064 664.712C279.064 666.536 279.136 668 279.28 669.104C279.472 670.208 279.688 671.168 279.928 671.984C279.16 672.128 278.32 672.368 277.408 672.704C276.544 672.992 275.68 673.352 274.816 673.784C274 674.168 273.232 674.576 272.512 675.008C271.84 675.44 271.336 675.848 271 676.232ZM295.569 667.232C296.625 667.328 297.705 667.4 298.809 667.448C299.961 667.496 301.377 667.712 303.057 668.096V657.944C301.665 658.472 300.321 658.928 299.025 659.312C297.729 659.648 296.625 659.864 295.713 659.96L295.569 667.232ZM314.145 644.264C313.377 645.368 312.873 646.832 312.633 648.656C312.441 650.48 312.345 653.144 312.345 656.648C312.345 658.952 312.393 660.8 312.489 662.192C312.633 663.536 312.825 664.616 313.065 665.432C313.305 666.2 313.641 666.752 314.073 667.088C314.505 667.376 315.033 667.592 315.657 667.736V668.528C314.985 668.768 314.265 669.2 313.497 669.824C312.777 670.4 312.057 671.048 311.337 671.768C310.617 672.488 309.969 673.232 309.393 674C308.817 674.768 308.385 675.44 308.097 676.016C307.089 675.344 306.177 674.456 305.361 673.352C304.545 672.248 303.897 671.144 303.417 670.04L298.449 676.016C296.625 674.912 294.609 674.072 292.401 673.496C290.241 672.92 287.769 672.608 284.985 672.56C285.465 671.312 285.753 669.752 285.849 667.88C285.945 665.96 285.993 664.04 285.993 662.12C285.993 660.968 285.921 659.888 285.777 658.88C285.633 657.824 285.393 656.888 285.057 656.072C286.113 656.216 287.265 656.288 288.513 656.288C289.857 656.288 291.225 656.24 292.617 656.144C294.057 656 295.425 655.808 296.721 655.568C298.017 655.328 299.193 655.064 300.249 654.776C301.353 654.44 302.265 654.08 302.985 653.696V646.568C301.353 647.288 299.649 647.888 297.873 648.368C296.097 648.848 294.633 649.088 293.481 649.088C292.665 649.088 291.897 649.016 291.177 648.872C290.505 648.68 289.881 648.344 289.305 647.864C288.729 647.336 288.201 646.616 287.721 645.704C287.289 644.792 286.905 643.616 286.569 642.176C286.857 642.176 287.049 642.2 287.145 642.248C287.289 642.248 287.649 642.248 288.225 642.248C291.681 642.248 294.657 641.936 297.153 641.312C299.649 640.688 301.593 639.968 302.985 639.152C304.569 640.88 306.201 642.176 307.881 643.04C309.609 643.856 311.697 644.264 314.145 644.264ZM332.76 646.352V662.264C332.76 664.76 333.36 666.632 334.56 667.88C335.808 669.128 337.344 669.8 339.168 669.896V670.904C338.352 671.192 337.488 671.552 336.576 671.984C335.664 672.416 334.776 672.872 333.912 673.352C333.048 673.784 332.232 674.24 331.464 674.72C330.696 675.2 330.096 675.632 329.664 676.016C328.56 675.344 327.432 674.696 326.28 674.072C325.128 673.448 324.168 672.944 323.4 672.56V645.776H317.424V644.984C319.536 644.168 321.528 642.92 323.4 641.24V638.936C323.4 638.552 323.352 637.952 323.256 637.136C323.208 636.272 323.136 635.408 323.04 634.544C322.944 633.632 322.824 632.816 322.68 632.096C322.536 631.328 322.368 630.824 322.176 630.584C324.336 630.44 326.328 630.008 328.152 629.288C329.976 628.568 331.92 627.656 333.984 626.552C333.792 627.032 333.624 627.776 333.48 628.784C333.336 629.792 333.192 630.872 333.048 632.024C332.952 633.128 332.88 634.208 332.832 635.264C332.784 636.272 332.76 636.992 332.76 637.424V641.24H342.912V641.528C342.144 642.344 341.448 643.256 340.824 644.264C340.248 645.272 339.84 646.256 339.6 647.216L332.76 646.352ZM354.983 667.232C356.039 667.328 357.119 667.4 358.223 667.448C359.375 667.496 360.791 667.712 362.471 668.096V657.944C361.079 658.472 359.735 658.928 358.439 659.312C357.143 659.648 356.039 659.864 355.127 659.96L354.983 667.232ZM373.559 644.264C372.791 645.368 372.287 646.832 372.047 648.656C371.855 650.48 371.759 653.144 371.759 656.648C371.759 658.952 371.807 660.8 371.903 662.192C372.047 663.536 372.239 664.616 372.479 665.432C372.719 666.2 373.055 666.752 373.487 667.088C373.919 667.376 374.447 667.592 375.071 667.736V668.528C374.399 668.768 373.679 669.2 372.911 669.824C372.191 670.4 371.471 671.048 370.751 671.768C370.031 672.488 369.383 673.232 368.807 674C368.231 674.768 367.799 675.44 367.511 676.016C366.503 675.344 365.591 674.456 364.775 673.352C363.959 672.248 363.311 671.144 362.831 670.04L357.863 676.016C356.039 674.912 354.023 674.072 351.815 673.496C349.655 672.92 347.183 672.608 344.399 672.56C344.879 671.312 345.167 669.752 345.263 667.88C345.359 665.96 345.407 664.04 345.407 662.12C345.407 660.968 345.335 659.888 345.191 658.88C345.047 657.824 344.807 656.888 344.471 656.072C345.527 656.216 346.679 656.288 347.927 656.288C349.271 656.288 350.639 656.24 352.031 656.144C353.471 656 354.839 655.808 356.135 655.568C357.431 655.328 358.607 655.064 359.663 654.776C360.767 654.44 361.679 654.08 362.399 653.696V646.568C360.767 647.288 359.063 647.888 357.287 648.368C355.511 648.848 354.047 649.088 352.895 649.088C352.079 649.088 351.311 649.016 350.591 648.872C349.919 648.68 349.295 648.344 348.719 647.864C348.143 647.336 347.615 646.616 347.135 645.704C346.703 644.792 346.319 643.616 345.983 642.176C346.271 642.176 346.463 642.2 346.559 642.248C346.703 642.248 347.063 642.248 347.639 642.248C351.095 642.248 354.071 641.936 356.567 641.312C359.063 640.688 361.007 639.968 362.399 639.152C363.983 640.88 365.615 642.176 367.295 643.04C369.023 643.856 371.111 644.264 373.559 644.264ZM392.174 646.352V662.264C392.174 664.76 392.774 666.632 393.974 667.88C395.222 669.128 396.758 669.8 398.582 669.896V670.904C397.766 671.192 396.902 671.552 395.99 671.984C395.078 672.416 394.19 672.872 393.326 673.352C392.462 673.784 391.646 674.24 390.878 674.72C390.11 675.2 389.51 675.632 389.078 676.016C387.974 675.344 386.846 674.696 385.694 674.072C384.542 673.448 383.582 672.944 382.814 672.56V645.776H376.838V644.984C378.95 644.168 380.942 642.92 382.814 641.24V638.936C382.814 638.552 382.766 637.952 382.67 637.136C382.622 636.272 382.55 635.408 382.454 634.544C382.358 633.632 382.238 632.816 382.094 632.096C381.95 631.328 381.782 630.824 381.59 630.584C383.75 630.44 385.742 630.008 387.566 629.288C389.39 628.568 391.334 627.656 393.398 626.552C393.206 627.032 393.038 627.776 392.894 628.784C392.75 629.792 392.606 630.872 392.462 632.024C392.366 633.128 392.294 634.208 392.246 635.264C392.198 636.272 392.174 636.992 392.174 637.424V641.24H402.326V641.528C401.558 642.344 400.862 643.256 400.238 644.264C399.662 645.272 399.254 646.256 399.014 647.216L392.174 646.352ZM422.577 659.888C422.577 657.248 422.529 655.136 422.433 653.552C422.337 651.92 422.145 650.672 421.857 649.808C421.617 648.896 421.281 648.272 420.849 647.936C420.465 647.552 419.961 647.264 419.337 647.072V646.28C419.961 646.04 420.657 645.632 421.425 645.056C422.193 644.432 422.937 643.76 423.657 643.04C424.377 642.32 425.025 641.576 425.601 640.808C426.177 640.04 426.609 639.368 426.897 638.792C427.905 639.464 428.817 640.352 429.633 641.456C430.449 642.56 431.097 643.664 431.577 644.768C432.441 644.192 433.425 643.616 434.529 643.04C435.633 642.464 436.785 641.936 437.985 641.456C439.233 640.928 440.481 640.472 441.729 640.088C443.025 639.656 444.297 639.296 445.545 639.008C446.697 640.256 447.945 641.288 449.289 642.104C450.633 642.92 452.001 643.52 453.393 643.904C452.865 645.92 452.553 647.84 452.457 649.664C452.361 651.44 452.313 653.24 452.313 655.064C452.313 657.32 452.337 659.288 452.385 660.968C452.433 662.648 452.505 664.088 452.601 665.288C452.697 666.488 452.817 667.472 452.961 668.24C453.105 668.96 453.297 669.536 453.537 669.968C451.377 670.352 449.169 671.096 446.913 672.2C444.705 673.256 442.497 674.552 440.289 676.088C438.801 675.464 437.385 674.984 436.041 674.648C434.745 674.312 433.377 674.072 431.937 673.928V681.2C431.937 682.448 431.961 683.528 432.009 684.44C432.105 685.4 432.225 686.288 432.369 687.104C432.513 687.968 432.729 688.76 433.017 689.48C433.305 690.248 433.665 691.04 434.097 691.856C433.137 691.52 432.009 691.352 430.713 691.352C429.129 691.352 427.449 691.616 425.673 692.144C423.945 692.672 422.073 693.416 420.057 694.376C421.017 693.224 421.665 691.688 422.001 689.768C422.385 687.848 422.577 685.64 422.577 683.144V659.888ZM437.913 668.96C438.489 668.432 439.257 667.856 440.217 667.232C441.225 666.56 442.113 666.056 442.881 665.72C442.785 664.664 442.713 663.248 442.665 661.472C442.665 659.648 442.665 657.92 442.665 656.288C442.665 654.752 442.689 653.216 442.737 651.68C442.833 650.144 442.929 648.728 443.025 647.432C442.065 647.48 441.033 647.624 439.929 647.864C438.873 648.056 437.841 648.296 436.833 648.584C435.825 648.872 434.889 649.208 434.025 649.592C433.161 649.928 432.465 650.264 431.937 650.6V667.52C432.705 667.568 433.665 667.736 434.817 668.024C435.969 668.312 437.001 668.624 437.913 668.96ZM470.397 641.24V667.664C470.397 670.688 471.045 672.44 472.341 672.92V674C470.805 674.24 469.365 674.528 468.021 674.864C466.677 675.2 465.285 675.584 463.845 676.016H463.485C461.853 673.808 461.037 671.216 461.037 668.24V643.184L458.373 642.032V641.24C460.053 641 461.877 640.688 463.845 640.304C465.813 639.872 467.565 639.464 469.101 639.08L470.397 641.24ZM459.021 627.2C459.837 625.808 460.821 624.44 461.973 623.096C463.173 621.704 464.493 620.624 465.933 619.856C466.221 620.24 466.653 620.696 467.229 621.224C467.853 621.752 468.501 622.28 469.173 622.808C469.893 623.336 470.565 623.84 471.189 624.32C471.861 624.752 472.365 625.064 472.701 625.256C471.069 626.408 469.677 627.536 468.525 628.64C467.421 629.696 466.461 631.04 465.645 632.672C465.357 632.336 464.901 631.928 464.277 631.448C463.701 630.92 463.077 630.392 462.405 629.864C461.733 629.336 461.085 628.832 460.461 628.352C459.837 627.872 459.357 627.488 459.021 627.2ZM489.523 647.216C491.587 645.872 493.435 644.528 495.067 643.184C496.699 641.84 498.379 640.256 500.107 638.432C500.923 639.2 501.667 639.896 502.339 640.52C503.011 641.096 503.683 641.624 504.355 642.104C505.075 642.584 505.819 643.064 506.587 643.544C507.355 643.976 508.243 644.432 509.251 644.912C509.059 645.584 508.891 646.304 508.747 647.072C508.651 647.792 508.555 648.728 508.459 649.88C508.411 651.032 508.363 652.448 508.315 654.128C508.267 655.808 508.243 657.896 508.243 660.392C508.243 662.504 508.243 664.256 508.243 665.648C508.291 666.992 508.339 668.096 508.387 668.96C508.435 669.824 508.507 670.544 508.603 671.12C508.699 671.648 508.795 672.152 508.891 672.632C507.931 672.968 506.947 673.424 505.939 674C504.979 674.576 503.995 675.224 502.987 675.944C502.027 676.664 501.115 677.408 500.251 678.176C499.387 678.944 498.619 679.688 497.947 680.408L497.515 679.976C497.803 679.016 498.067 677.816 498.307 676.376C498.547 674.984 498.739 673.592 498.883 672.2C499.027 670.76 499.147 669.44 499.243 668.24C499.339 667.04 499.387 666.176 499.387 665.648C499.387 662.912 499.363 660.176 499.315 657.44C499.315 654.704 499.315 651.968 499.315 649.232L498.379 648.224L489.523 652.184V667.664C489.523 670.688 490.171 672.44 491.467 672.92V674H478.219V672.92C478.795 672.68 479.251 672.2 479.587 671.48C479.971 670.712 480.163 669.656 480.163 668.312V643.184L477.499 642.032V641.24C479.179 641 481.003 640.688 482.971 640.304C484.939 639.872 486.691 639.464 488.227 639.08L489.523 641.24V647.216ZM510.796 692.792C512.524 690.344 513.965 687.896 515.117 685.448C516.269 683.048 517.157 680.48 517.781 677.744V643.184L515.117 642.032V641.24C516.797 641 518.621 640.688 520.589 640.304C522.557 639.872 524.309 639.464 525.845 639.08L527.141 641.24V668.384C527.141 670.544 527.141 672.392 527.141 673.928C527.189 675.416 527.285 676.664 527.429 677.672C527.573 678.728 527.765 679.568 528.005 680.192C528.245 680.816 528.581 681.344 529.013 681.776V682.064C528.005 682.4 526.877 682.928 525.629 683.648C524.381 684.368 523.061 685.232 521.669 686.24C520.325 687.296 518.933 688.496 517.493 689.84C516.053 691.232 514.661 692.744 513.317 694.376L510.796 692.792ZM515.765 627.2C516.581 625.808 517.565 624.44 518.717 623.096C519.917 621.704 521.237 620.624 522.677 619.856C522.965 620.24 523.397 620.696 523.973 621.224C524.597 621.752 525.245 622.28 525.917 622.808C526.637 623.336 527.309 623.84 527.933 624.32C528.605 624.752 529.109 625.064 529.445 625.256C527.813 626.408 526.421 627.536 525.269 628.64C524.165 629.696 523.205 631.04 522.389 632.672C522.101 632.336 521.645 631.928 521.021 631.448C520.445 630.92 519.821 630.392 519.149 629.864C518.477 629.336 517.829 628.832 517.205 628.352C516.581 627.872 516.101 627.488 515.765 627.2ZM544.898 667.232C545.954 667.328 547.034 667.4 548.138 667.448C549.29 667.496 550.706 667.712 552.386 668.096V657.944C550.994 658.472 549.65 658.928 548.354 659.312C547.058 659.648 545.954 659.864 545.042 659.96L544.898 667.232ZM563.474 644.264C562.706 645.368 562.202 646.832 561.962 648.656C561.77 650.48 561.674 653.144 561.674 656.648C561.674 658.952 561.722 660.8 561.818 662.192C561.962 663.536 562.154 664.616 562.394 665.432C562.634 666.2 562.97 666.752 563.402 667.088C563.834 667.376 564.362 667.592 564.986 667.736V668.528C564.314 668.768 563.594 669.2 562.826 669.824C562.106 670.4 561.386 671.048 560.666 671.768C559.946 672.488 559.298 673.232 558.722 674C558.146 674.768 557.714 675.44 557.426 676.016C556.418 675.344 555.506 674.456 554.69 673.352C553.874 672.248 553.226 671.144 552.746 670.04L547.778 676.016C545.954 674.912 543.938 674.072 541.73 673.496C539.57 672.92 537.098 672.608 534.313 672.56C534.794 671.312 535.082 669.752 535.178 667.88C535.274 665.96 535.322 664.04 535.322 662.12C535.322 660.968 535.25 659.888 535.106 658.88C534.962 657.824 534.722 656.888 534.386 656.072C535.442 656.216 536.594 656.288 537.842 656.288C539.186 656.288 540.554 656.24 541.946 656.144C543.386 656 544.754 655.808 546.05 655.568C547.346 655.328 548.522 655.064 549.578 654.776C550.682 654.44 551.594 654.08 552.314 653.696V646.568C550.682 647.288 548.978 647.888 547.202 648.368C545.426 648.848 543.962 649.088 542.81 649.088C541.994 649.088 541.226 649.016 540.506 648.872C539.834 648.68 539.21 648.344 538.634 647.864C538.058 647.336 537.53 646.616 537.05 645.704C536.618 644.792 536.234 643.616 535.898 642.176C536.186 642.176 536.378 642.2 536.474 642.248C536.618 642.248 536.978 642.248 537.554 642.248C541.01 642.248 543.986 641.936 546.482 641.312C548.978 640.688 550.922 639.968 552.314 639.152C553.898 640.88 555.53 642.176 557.21 643.04C558.938 643.856 561.026 644.264 563.474 644.264ZM605.848 679.976C606.136 679.016 606.4 677.816 606.64 676.376C606.88 674.984 607.072 673.592 607.216 672.2C607.36 670.76 607.48 669.44 607.576 668.24C607.672 667.04 607.72 666.176 607.72 665.648C607.72 662.912 607.696 660.176 607.648 657.44C607.648 654.704 607.648 651.968 607.648 649.232L606.712 648.224L598.648 651.68C598.6 652.736 598.576 654.128 598.576 655.856C598.576 657.584 598.576 659.336 598.576 661.112V667.664C598.576 670.688 599.224 672.44 600.52 672.92V674H587.704V672.92C588.28 672.68 588.736 672.2 589.072 671.48C589.456 670.712 589.648 669.656 589.648 668.312V649.232L588.712 648.224L580.72 651.68V667.664C580.72 670.688 581.368 672.44 582.664 672.92V674H569.416V672.92C569.992 672.68 570.448 672.2 570.784 671.48C571.168 670.712 571.36 669.656 571.36 668.312V643.184L568.696 642.032V641.24C570.376 641 572.2 640.688 574.168 640.304C576.136 639.872 577.888 639.464 579.424 639.08L580.72 641.24V647.144C582.592 645.8 584.272 644.48 585.76 643.184C587.296 641.84 588.856 640.256 590.44 638.432C591.256 639.2 592 639.896 592.672 640.52C593.344 641.096 594.016 641.624 594.688 642.104C595.408 642.584 596.152 643.064 596.92 643.544C597.688 643.976 598.576 644.432 599.584 644.912L599.152 646.856C600.928 645.56 602.536 644.264 603.976 642.968C605.416 641.672 606.904 640.16 608.44 638.432C609.256 639.2 610 639.896 610.672 640.52C611.344 641.096 612.016 641.624 612.688 642.104C613.408 642.584 614.152 643.064 614.92 643.544C615.688 643.976 616.576 644.432 617.584 644.912C617.392 645.584 617.224 646.304 617.08 647.072C616.984 647.792 616.888 648.728 616.792 649.88C616.744 651.032 616.696 652.448 616.648 654.128C616.6 655.808 616.576 657.896 616.576 660.392C616.576 662.504 616.576 664.256 616.576 665.648C616.624 666.992 616.672 668.096 616.72 668.96C616.768 669.824 616.84 670.544 616.936 671.12C617.032 671.648 617.128 672.152 617.224 672.632C616.264 672.968 615.28 673.424 614.272 674C613.312 674.576 612.328 675.224 611.32 675.944C610.36 676.664 609.448 677.408 608.584 678.176C607.72 678.944 606.952 679.688 606.28 680.408L605.848 679.976ZM633.913 667.232C634.969 667.328 636.049 667.4 637.153 667.448C638.305 667.496 639.721 667.712 641.401 668.096V657.944C640.009 658.472 638.665 658.928 637.369 659.312C636.073 659.648 634.969 659.864 634.057 659.96L633.913 667.232ZM652.489 644.264C651.721 645.368 651.217 646.832 650.977 648.656C650.785 650.48 650.689 653.144 650.689 656.648C650.689 658.952 650.737 660.8 650.833 662.192C650.977 663.536 651.169 664.616 651.409 665.432C651.649 666.2 651.985 666.752 652.417 667.088C652.849 667.376 653.377 667.592 654.001 667.736V668.528C653.329 668.768 652.609 669.2 651.841 669.824C651.121 670.4 650.401 671.048 649.681 671.768C648.961 672.488 648.313 673.232 647.737 674C647.161 674.768 646.729 675.44 646.441 676.016C645.433 675.344 644.521 674.456 643.705 673.352C642.889 672.248 642.241 671.144 641.761 670.04L636.793 676.016C634.969 674.912 632.953 674.072 630.745 673.496C628.585 672.92 626.113 672.608 623.329 672.56C623.809 671.312 624.097 669.752 624.193 667.88C624.289 665.96 624.337 664.04 624.337 662.12C624.337 660.968 624.265 659.888 624.121 658.88C623.977 657.824 623.737 656.888 623.401 656.072C624.457 656.216 625.609 656.288 626.857 656.288C628.201 656.288 629.569 656.24 630.961 656.144C632.401 656 633.769 655.808 635.065 655.568C636.361 655.328 637.537 655.064 638.593 654.776C639.697 654.44 640.609 654.08 641.329 653.696V646.568C639.697 647.288 637.993 647.888 636.217 648.368C634.441 648.848 632.977 649.088 631.825 649.088C631.009 649.088 630.241 649.016 629.521 648.872C628.849 648.68 628.225 648.344 627.649 647.864C627.073 647.336 626.545 646.616 626.065 645.704C625.633 644.792 625.249 643.616 624.913 642.176C625.201 642.176 625.393 642.2 625.489 642.248C625.633 642.248 625.993 642.248 626.569 642.248C630.025 642.248 633.001 641.936 635.497 641.312C637.993 640.688 639.937 639.968 641.329 639.152C642.913 640.88 644.545 642.176 646.225 643.04C647.953 643.856 650.041 644.264 652.489 644.264ZM669.664 647.216C671.728 645.872 673.576 644.528 675.208 643.184C676.84 641.84 678.52 640.256 680.248 638.432C681.064 639.2 681.808 639.896 682.48 640.52C683.152 641.096 683.824 641.624 684.496 642.104C685.216 642.584 685.96 643.064 686.728 643.544C687.496 643.976 688.384 644.432 689.392 644.912C689.2 645.584 689.032 646.304 688.888 647.072C688.792 647.792 688.696 648.728 688.6 649.88C688.552 651.032 688.504 652.448 688.456 654.128C688.408 655.808 688.384 657.896 688.384 660.392C688.384 662.504 688.384 664.256 688.384 665.648C688.432 666.992 688.48 668.096 688.528 668.96C688.576 669.824 688.648 670.544 688.744 671.12C688.84 671.648 688.936 672.152 689.032 672.632C688.072 672.968 687.088 673.424 686.08 674C685.12 674.576 684.136 675.224 683.128 675.944C682.168 676.664 681.256 677.408 680.392 678.176C679.528 678.944 678.76 679.688 678.088 680.408L677.656 679.976C677.944 679.016 678.208 677.816 678.448 676.376C678.688 674.984 678.88 673.592 679.024 672.2C679.168 670.76 679.288 669.44 679.384 668.24C679.48 667.04 679.528 666.176 679.528 665.648C679.528 662.912 679.504 660.176 679.456 657.44C679.456 654.704 679.456 651.968 679.456 649.232L678.52 648.224L669.664 652.184V667.664C669.664 670.688 670.312 672.44 671.608 672.92V674H658.36V672.92C658.936 672.68 659.392 672.2 659.728 671.48C660.112 670.712 660.304 669.656 660.304 668.312V643.184L657.64 642.032V641.24C659.32 641 661.144 640.688 663.112 640.304C665.08 639.872 666.832 639.464 668.368 639.08L669.664 641.24V647.216ZM729.861 669.032C730.389 668.504 731.061 667.928 731.877 667.304C732.693 666.632 733.437 666.128 734.109 665.792C734.013 664.736 733.941 663.32 733.893 661.544C733.893 659.72 733.893 657.992 733.893 656.36C733.893 654.824 733.917 653.288 733.965 651.752C734.061 650.216 734.157 648.8 734.253 647.504C733.245 647.552 732.189 647.696 731.085 647.936C730.029 648.128 728.997 648.368 727.989 648.656C726.981 648.944 726.045 649.28 725.181 649.664C724.317 650 723.621 650.336 723.093 650.672V654.992C723.093 657.632 723.045 660.056 722.949 662.264C722.901 664.472 722.733 666.248 722.445 667.592C723.357 667.64 724.557 667.808 726.045 668.096C727.533 668.384 728.805 668.696 729.861 669.032ZM713.733 630.44C713.733 629.24 713.709 628.16 713.661 627.2C713.613 626.24 713.493 625.352 713.301 624.536C713.157 623.72 712.941 622.928 712.653 622.16C712.365 621.392 712.005 620.6 711.573 619.784C712.533 620.12 713.661 620.288 714.957 620.288C716.541 620.288 718.197 620.024 719.925 619.496C721.701 618.968 723.597 618.224 725.613 617.264C724.653 618.416 723.981 619.952 723.597 621.872C723.261 623.792 723.093 626 723.093 628.496V645.128C723.957 644.552 724.917 643.976 725.973 643.4C727.029 642.776 728.157 642.2 729.357 641.672C730.557 641.096 731.781 640.592 733.029 640.16C734.277 639.728 735.525 639.368 736.773 639.08C737.925 640.328 739.173 641.36 740.517 642.176C741.861 642.992 743.229 643.592 744.621 643.976C744.093 645.992 743.781 647.912 743.685 649.736C743.589 651.512 743.541 653.312 743.541 655.136C743.541 657.392 743.565 659.36 743.613 661.04C743.661 662.72 743.733 664.16 743.829 665.36C743.925 666.56 744.045 667.544 744.189 668.312C744.333 669.032 744.525 669.608 744.765 670.04C743.709 670.232 742.557 670.52 741.309 670.904C740.061 671.288 738.789 671.744 737.493 672.272C736.197 672.8 734.901 673.376 733.605 674C732.357 674.672 731.181 675.392 730.077 676.16C727.917 675.488 725.853 674.912 723.885 674.432C721.917 674 720.165 673.784 718.629 673.784C717.573 673.784 716.373 673.88 715.029 674.072C713.733 674.264 712.581 674.552 711.573 674.936C712.437 673.352 713.013 671.024 713.301 667.952C713.589 664.88 713.733 660.68 713.733 655.352V630.44ZM748.671 642.104C749.679 642.008 750.807 641.864 752.055 641.672C753.303 641.432 754.551 641.168 755.799 640.88C757.047 640.592 758.199 640.304 759.255 640.016C760.311 639.68 761.151 639.368 761.775 639.08C761.679 639.896 761.583 640.64 761.487 641.312C761.439 641.984 761.391 642.704 761.343 643.472C761.343 644.24 761.319 645.08 761.271 645.992C761.271 646.904 761.271 647.984 761.271 649.232V663.776L764.295 666.08L771.207 663.056V651.824C771.207 650.192 771.159 648.848 771.063 647.792C771.015 646.736 770.871 645.896 770.631 645.272C770.391 644.648 770.055 644.192 769.623 643.904C769.239 643.568 768.687 643.304 767.967 643.112V642.176C770.271 642.032 772.527 641.696 774.735 641.168C776.991 640.64 778.935 639.968 780.567 639.152V656.144C780.567 658.4 780.615 660.248 780.711 661.688C780.807 663.08 780.975 664.208 781.215 665.072C781.455 665.936 781.767 666.56 782.151 666.944C782.583 667.328 783.135 667.592 783.807 667.736V668.528C783.183 668.816 782.487 669.248 781.719 669.824C780.951 670.4 780.207 671.048 779.487 671.768C778.767 672.488 778.119 673.232 777.543 674C776.967 674.72 776.535 675.392 776.247 676.016C774.663 674.672 773.511 673.424 772.791 672.272C772.119 671.12 771.663 669.704 771.423 668.024C769.983 668.744 768.711 669.416 767.607 670.04C766.551 670.664 765.567 671.288 764.655 671.912C763.791 672.536 762.975 673.184 762.207 673.856C761.487 674.528 760.743 675.248 759.975 676.016C759.015 675.152 758.151 674.432 757.383 673.856C756.663 673.232 755.943 672.68 755.223 672.2C754.551 671.72 753.855 671.288 753.135 670.904C752.463 670.472 751.695 670.016 750.831 669.536C751.023 669.248 751.191 668.6 751.335 667.592C751.527 666.584 751.695 665.36 751.839 663.92C751.983 662.48 752.079 660.944 752.127 659.312C752.223 657.632 752.271 656.024 752.271 654.488C752.271 652.76 752.199 651.272 752.055 650.024C751.959 648.728 751.767 647.624 751.479 646.712C751.191 645.8 750.807 645.056 750.327 644.48C749.895 643.856 749.319 643.328 748.599 642.896L748.671 642.104ZM807.299 679.616C807.539 678.992 807.755 678.224 807.947 677.312C808.187 676.4 808.379 675.44 808.523 674.432C808.667 673.424 808.787 672.392 808.883 671.336C808.979 670.28 809.027 669.296 809.027 668.384V662.408C807.587 661.4 806.123 660.512 804.635 659.744C803.147 658.928 801.563 658.184 799.883 657.512V667.664C799.883 670.688 800.531 672.44 801.827 672.92V674H788.579V672.92C789.875 672.44 790.523 670.904 790.523 668.312V630.44C790.523 629.144 790.475 627.992 790.379 626.984C790.331 625.976 790.211 625.064 790.019 624.248C789.875 623.432 789.659 622.664 789.371 621.944C789.131 621.224 788.795 620.504 788.363 619.784C789.227 620.12 790.355 620.288 791.747 620.288C793.235 620.288 794.843 620.048 796.571 619.568C798.299 619.088 800.243 618.32 802.403 617.264C801.539 618.32 800.891 619.736 800.459 621.512C800.075 623.288 799.883 625.616 799.883 628.496V643.472C800.891 642.8 801.899 642.032 802.907 641.168C803.915 640.304 805.043 639.248 806.291 638C807.731 638.96 809.363 639.776 811.187 640.448C813.059 641.072 815.291 641.648 817.883 642.176C817.451 643.568 817.235 645.248 817.235 647.216C817.235 647.744 817.259 648.416 817.307 649.232C817.355 650.048 817.427 650.648 817.523 651.032L806.867 655.064V655.352C809.459 655.88 811.691 656.528 813.563 657.296C815.483 658.064 817.259 658.928 818.891 659.888C818.699 660.896 818.555 661.904 818.459 662.912C818.411 663.92 818.387 665.096 818.387 666.44C818.387 669.176 818.555 671.312 818.891 672.848C817.931 673.28 816.923 673.784 815.867 674.36C814.811 674.936 813.779 675.536 812.771 676.16C811.763 676.784 810.827 677.408 809.963 678.032C809.147 678.656 808.451 679.256 807.875 679.832L807.299 679.616ZM799.883 654.488L810.899 650.024L810.755 647.648L799.883 645.488V654.488ZM822.921 642.104C823.929 642.008 825.057 641.864 826.305 641.672C827.553 641.432 828.801 641.168 830.049 640.88C831.297 640.592 832.449 640.304 833.505 640.016C834.561 639.68 835.401 639.368 836.025 639.08C835.929 639.896 835.833 640.64 835.737 641.312C835.689 641.984 835.641 642.704 835.593 643.472C835.593 644.24 835.569 645.08 835.521 645.992C835.521 646.904 835.521 647.984 835.521 649.232V663.776L838.545 666.08L845.457 663.056V651.824C845.457 650.192 845.409 648.848 845.313 647.792C845.265 646.736 845.121 645.896 844.881 645.272C844.641 644.648 844.305 644.192 843.873 643.904C843.489 643.568 842.937 643.304 842.217 643.112V642.176C844.521 642.032 846.777 641.696 848.985 641.168C851.241 640.64 853.185 639.968 854.817 639.152V656.144C854.817 658.4 854.865 660.248 854.961 661.688C855.057 663.08 855.225 664.208 855.465 665.072C855.705 665.936 856.017 666.56 856.401 666.944C856.833 667.328 857.385 667.592 858.057 667.736V668.528C857.433 668.816 856.737 669.248 855.969 669.824C855.201 670.4 854.457 671.048 853.737 671.768C853.017 672.488 852.369 673.232 851.793 674C851.217 674.72 850.785 675.392 850.497 676.016C848.913 674.672 847.761 673.424 847.041 672.272C846.369 671.12 845.913 669.704 845.673 668.024C844.233 668.744 842.961 669.416 841.857 670.04C840.801 670.664 839.817 671.288 838.905 671.912C838.041 672.536 837.225 673.184 836.457 673.856C835.737 674.528 834.993 675.248 834.225 676.016C833.265 675.152 832.401 674.432 831.633 673.856C830.913 673.232 830.193 672.68 829.473 672.2C828.801 671.72 828.105 671.288 827.385 670.904C826.713 670.472 825.945 670.016 825.081 669.536C825.273 669.248 825.441 668.6 825.585 667.592C825.777 666.584 825.945 665.36 826.089 663.92C826.233 662.48 826.329 660.944 826.377 659.312C826.473 657.632 826.521 656.024 826.521 654.488C826.521 652.76 826.449 651.272 826.305 650.024C826.209 648.728 826.017 647.624 825.729 646.712C825.441 645.8 825.057 645.056 824.577 644.48C824.145 643.856 823.569 643.328 822.849 642.896L822.921 642.104Z" fill="black"/>
<rect x="345" y="203" width="40" height="394" fill="#326A7B"/>
<rect x="413" y="203" width="73" height="394" fill="#F2F700"/>
<rect x="514" y="203" width="129" height="394" fill="#34A48D"/>
<rect x="671" y="203" width="44" height="394" fill="#CF452B"/>
<path d="M413.201 114.259C413.201 123.78 411.932 130.361 409.393 134H340.14C336.797 134 334.49 133.154 333.221 131.461C332.798 130.868 332.586 130.213 332.586 129.493C332.586 127.885 332.924 126.658 333.602 125.812C335.04 126.235 336.924 126.446 339.251 126.446C344.456 126.446 347.059 123.251 347.059 116.861V51.6709C347.059 48.751 345.831 46.7832 343.377 45.7676C342.658 45.429 341.769 45.1117 340.711 44.8154L337.537 43.9902C335.506 43.4824 334.236 42.8688 333.729 42.1494C333.263 41.3877 333.03 40.626 333.03 39.8643C333.03 38.2562 333.369 37.029 334.046 36.1826C335.019 36.5212 337.114 36.6904 340.33 36.6904H368.006C370.206 36.6904 371.963 37.0501 373.274 37.7695C374.586 38.4466 375.242 39.7161 375.242 41.5781C375.242 43.0169 374.925 44.096 374.29 44.8154C372.682 44.3923 371.137 44.1807 369.656 44.1807C368.217 44.1807 367.075 44.3499 366.229 44.6885C365.424 44.9847 364.705 45.5137 364.07 46.2754C362.801 47.8835 362.124 50.5283 362.039 54.21V118.385C362.124 121.347 362.991 123.336 364.642 124.352C366.038 125.24 368.598 125.685 372.322 125.685L377.083 125.621L382.542 125.558C391.767 125.558 397.798 123.505 400.633 119.4C402.029 117.369 402.96 114.83 403.426 111.783C403.934 108.694 404.378 105.118 404.759 101.056C405.436 100.632 406.346 100.421 407.488 100.421C409.646 100.421 411.106 100.675 411.868 101.183C412.757 104.653 413.201 109.011 413.201 114.259ZM424.31 98.9609C424.31 93.7982 424.817 89.1644 425.833 85.0596C426.849 80.9548 428.245 77.3366 430.022 74.2051C431.8 71.0736 433.895 68.4076 436.307 66.207C438.719 63.9642 441.3 62.1445 444.051 60.748C449.425 57.9974 455.328 56.6221 461.761 56.6221C470.013 56.6221 477.016 59.6266 482.771 65.6357C489.161 72.2373 492.356 80.9548 492.356 91.7881C492.356 106.007 488.484 117.073 480.74 124.986C474.012 131.799 465.95 135.206 456.556 135.206C446.738 135.206 438.867 131.757 432.942 124.859C427.187 118.215 424.31 109.583 424.31 98.9609ZM460.301 124.859C463.136 124.859 465.675 124.203 467.918 122.892C470.161 121.537 472.065 119.697 473.631 117.369C476.762 112.545 478.328 106.282 478.328 98.5801C478.328 90.1165 476.678 82.9225 473.377 76.998C469.653 70.1849 464.3 66.7783 457.317 66.7783C451.689 66.7783 447.182 68.9365 443.797 73.2529C440.2 77.8232 438.401 84.2132 438.401 92.4229C438.401 102.706 440.665 110.831 445.193 116.798C449.256 122.172 454.292 124.859 460.301 124.859ZM529.935 108.673C528.326 110.281 527.522 111.847 527.522 113.37C527.522 114.894 527.967 116.057 528.855 116.861C529.744 117.623 530.908 118.215 532.347 118.639C534.547 119.231 536.98 119.527 539.646 119.527H545.105C558.901 119.527 567.978 122.828 572.337 129.43C573.945 131.884 574.749 134.868 574.749 138.38C574.749 141.935 574.157 145.045 572.972 147.711C571.787 150.377 570.2 152.726 568.211 154.757C566.222 156.83 563.916 158.608 561.292 160.089C558.668 161.57 555.896 162.776 552.977 163.707C547.264 165.611 541.932 166.563 536.98 166.563C532.029 166.563 527.692 166.161 523.968 165.357C520.286 164.596 517.007 163.39 514.129 161.739C507.908 158.142 504.798 152.979 504.798 146.251C504.798 140.538 507.654 135.418 513.367 130.89C515.102 129.535 516.943 128.329 518.89 127.271C516.604 125.367 515.462 122.807 515.462 119.591C515.462 114.555 517.959 110.323 522.952 106.896C515.631 104.103 510.828 99.109 508.543 91.915C507.824 89.5452 507.464 86.9004 507.464 83.9805C507.464 81.0605 507.908 78.3099 508.797 75.7285C509.728 73.1471 510.976 70.8408 512.542 68.8096C514.15 66.7783 516.012 65.001 518.128 63.4775C520.244 61.9541 522.508 60.6846 524.92 59.6689C529.66 57.6377 534.632 56.6221 539.837 56.6221C548.427 56.6221 555.283 58.7803 560.403 63.0967C560.953 60.9808 561.229 58.8014 561.229 56.5586C561.229 54.3158 560.742 52.4961 559.769 51.0996C561.419 49.153 563.873 48.1797 567.132 48.1797C568.994 48.1797 570.475 48.6875 571.575 49.7031C573.691 51.5228 574.749 53.3424 574.749 55.1621C574.749 56.9395 574.474 58.5052 573.924 59.8594C573.374 61.1712 572.654 62.4196 571.766 63.6045C570.2 65.805 568.169 67.7939 565.672 69.5713C567.365 72.7451 568.211 76.4268 568.211 80.6162C568.211 84.7633 567.28 88.6354 565.418 92.2324C563.598 95.7871 561.144 98.8128 558.055 101.31C551.707 106.43 543.878 108.99 534.568 108.99C533.299 108.99 531.754 108.884 529.935 108.673ZM526.824 95.1523C528.348 96.6335 530.083 97.7337 532.029 98.4531C533.976 99.1725 536.049 99.5322 538.25 99.5322C540.493 99.5322 542.588 99.2148 544.534 98.5801C546.523 97.9453 548.237 97.0143 549.676 95.7871C552.765 93.1634 554.31 89.4395 554.31 84.6152C554.31 79.2832 552.934 74.8398 550.184 71.2852C547.052 67.3496 542.651 65.3818 536.98 65.3818C529.829 65.3818 525.195 68.3018 523.079 74.1416C522.36 76.1305 522 78.585 522 81.5049C522 84.4248 522.423 87.0485 523.27 89.376C524.158 91.7035 525.343 93.6289 526.824 95.1523ZM526.888 131.017C521.344 134.783 518.572 139.057 518.572 143.839C518.572 147.986 520.984 151.139 525.809 153.297C529.66 155.074 534.399 155.963 540.027 155.963C545.148 155.963 549.887 155.117 554.246 153.424C559.959 151.181 562.815 147.521 562.815 142.442C562.815 135.629 557.293 132.223 546.248 132.223L540.599 132.286C534.843 132.286 530.273 131.863 526.888 131.017ZM599.632 44.8154C598.193 44.8154 596.86 44.6038 595.633 44.1807C594.448 43.7152 593.411 43.0592 592.522 42.2129C590.66 40.4355 589.729 38.0446 589.729 35.04C589.729 32.1624 590.83 29.7292 593.03 27.7402C595.146 25.7513 597.685 24.7568 600.647 24.7568C603.61 24.7568 605.979 25.6455 607.757 27.4229C609.534 29.2002 610.423 31.6123 610.423 34.6592C610.423 37.5368 609.365 39.9701 607.249 41.959C605.175 43.8633 602.636 44.8154 599.632 44.8154ZM595.76 134C589.243 134 585.984 132.519 585.984 129.557C585.984 128.033 586.323 126.848 587 126.002C588.016 126.34 588.947 126.51 589.793 126.51C593.729 126.51 595.654 124.013 595.569 119.02V76.4902C595.569 73.528 595.146 71.4756 594.3 70.333C593.496 69.1481 592.036 68.5557 589.92 68.5557C588.354 68.5557 586.937 68.7461 585.667 69.127C584.905 69.2116 584.355 68.6191 584.017 67.3496C583.72 66.207 583.89 65.2126 584.524 64.3662C585.159 63.4775 586.132 62.5677 587.444 61.6367C588.799 60.6634 590.28 59.8171 591.888 59.0977C595.358 57.4473 598.257 56.6221 600.584 56.6221C602.911 56.6221 604.625 56.9606 605.726 57.6377C606.868 58.3148 607.736 59.2246 608.328 60.3672C609.259 62.2292 609.725 65.2337 609.725 69.3809V120.099C609.852 123.442 611.058 125.473 613.343 126.192C613.978 126.404 614.76 126.594 615.691 126.764C616.622 126.933 617.448 127.145 618.167 127.398C618.929 127.61 619.521 127.864 619.944 128.16C620.664 128.71 621.023 129.599 621.023 130.826C621.023 132.35 620.706 133.513 620.071 134.317C619.183 134.106 617.828 134 616.009 134H595.76ZM664.568 134.317C663.722 134.106 662.368 134 660.506 134H640.257C636.194 134 633.592 133.281 632.449 131.842C631.984 131.292 631.751 130.657 631.751 129.938C631.751 128.16 632.09 126.848 632.767 126.002C633.782 126.34 634.925 126.51 636.194 126.51C637.506 126.51 638.479 125.981 639.114 124.923C639.791 123.865 640.109 121.897 640.066 119.02V77.5059C640.066 73.528 639.326 71.0524 637.845 70.0791C637.252 69.6982 636.469 69.5078 635.496 69.5078C634.523 69.5078 633.74 69.6559 633.147 69.9521C632.597 70.2484 632.132 70.46 631.751 70.5869C631.412 70.7139 631.116 70.7139 630.862 70.5869C630.608 70.4176 630.354 70.1849 630.101 69.8887C629.466 69.2116 629.148 68.5133 629.148 67.7939C629.148 67.0322 629.402 66.2493 629.91 65.4453C630.46 64.599 631.328 63.6468 632.513 62.5889C633.698 61.4886 635.052 60.4941 636.575 59.6055C640.003 57.6165 643.431 56.6221 646.858 56.6221C650.794 56.6221 653.121 59.2246 653.841 64.4297C654.052 65.9531 654.179 67.5189 654.222 69.127C660.527 63.8372 667.382 60.071 674.788 57.8281C677.454 57.0241 680.141 56.6221 682.85 56.6221C685.6 56.6221 688.203 56.9818 690.657 57.7012C693.154 58.4206 695.312 59.5843 697.132 61.1924C700.983 64.5778 702.908 69.8675 702.908 77.0615V120.099C703.035 123.399 704.262 125.431 706.59 126.192C707.225 126.404 708.007 126.594 708.938 126.764C709.869 126.933 710.695 127.145 711.414 127.398C712.176 127.61 712.768 127.864 713.191 128.16C713.911 128.71 714.271 129.599 714.271 130.826C714.271 132.307 713.932 133.471 713.255 134.317C712.409 134.106 711.054 134 709.192 134H688.943C684.881 134 682.278 133.281 681.136 131.842C680.67 131.292 680.438 130.657 680.438 129.938C680.438 128.16 680.776 126.848 681.453 126.002C682.469 126.34 683.4 126.51 684.246 126.51C685.135 126.51 685.875 126.404 686.468 126.192C687.06 125.938 687.526 125.536 687.864 124.986C688.457 123.971 688.753 121.982 688.753 119.02V81.5684C688.753 74.3743 686.616 70.3542 682.342 69.5078C681.03 69.2539 679.38 69.127 677.391 69.127C675.444 69.127 673.286 69.4232 670.916 70.0156C668.546 70.6081 666.325 71.3698 664.251 72.3008C660.273 74.0781 656.93 76.321 654.222 79.0293V120.099C654.349 123.399 655.555 125.431 657.84 126.192C658.517 126.404 659.3 126.594 660.188 126.764C661.119 126.933 661.966 127.145 662.728 127.398C663.489 127.61 664.082 127.864 664.505 128.16C665.224 128.71 665.584 129.599 665.584 130.826C665.584 132.307 665.245 133.471 664.568 134.317Z" fill="black"/>
</svg>
