<svg width="1055" height="675" viewBox="0 0 1055 675" fill="none" xmlns="http://www.w3.org/2000/svg">
<rect width="1055" height="675" fill="white"/>
<rect y="45" width="81" height="549" fill="#333A42"/>
<rect x="974" y="45" width="81" height="549" fill="#333A42"/>
<rect x="109" y="122" width="37" height="394" fill="#34A48D"/>
<rect x="174" y="122" width="88" height="394" fill="#2D6C7B"/>
<rect x="290" y="122" width="27" height="394" fill="#CF452B"/>
<rect x="743" y="122" width="82" height="394" fill="#34A48D"/>
<rect x="853" y="122" width="24" height="394" fill="#F2F700"/>
<rect x="905" y="122" width="41" height="394" fill="#34A48D"/>
<path d="M145.968 578.888C145.968 576.248 145.92 574.136 145.824 572.552C145.728 570.92 145.536 569.672 145.248 568.808C145.008 567.896 144.672 567.272 144.24 566.936C143.856 566.552 143.352 566.264 142.728 566.072V565.28C143.352 565.04 144.048 564.632 144.816 564.056C145.584 563.432 146.328 562.76 147.048 562.04C147.768 561.32 148.416 560.576 148.992 559.808C149.568 559.04 150 558.368 150.288 557.792C151.296 558.464 152.208 559.352 153.024 560.456C153.84 561.56 154.488 562.664 154.968 563.768C155.832 563.192 156.816 562.616 157.92 562.04C159.024 561.464 160.176 560.936 161.376 560.456C162.624 559.928 163.872 559.472 165.12 559.088C166.416 558.656 167.688 558.296 168.936 558.008C170.088 559.256 171.336 560.288 172.68 561.104C174.024 561.92 175.392 562.52 176.784 562.904C176.256 564.92 175.944 566.84 175.848 568.664C175.752 570.44 175.704 572.24 175.704 574.064C175.704 576.32 175.728 578.288 175.776 579.968C175.824 581.648 175.896 583.088 175.992 584.288C176.088 585.488 176.208 586.472 176.352 587.24C176.496 587.96 176.688 588.536 176.928 588.968C174.768 589.352 172.56 590.096 170.304 591.2C168.096 592.256 165.888 593.552 163.68 595.088C162.192 594.464 160.776 593.984 159.432 593.648C158.136 593.312 156.768 593.072 155.328 592.928V600.2C155.328 601.448 155.352 602.528 155.4 603.44C155.496 604.4 155.616 605.288 155.76 606.104C155.904 606.968 156.12 607.76 156.408 608.48C156.696 609.248 157.056 610.04 157.488 610.856C156.528 610.52 155.4 610.352 154.104 610.352C152.52 610.352 150.84 610.616 149.064 611.144C147.336 611.672 145.464 612.416 143.448 613.376C144.408 612.224 145.056 610.688 145.392 608.768C145.776 606.848 145.968 604.64 145.968 602.144V578.888ZM161.304 587.96C161.88 587.432 162.648 586.856 163.608 586.232C164.616 585.56 165.504 585.056 166.272 584.72C166.176 583.664 166.104 582.248 166.056 580.472C166.056 578.648 166.056 576.92 166.056 575.288C166.056 573.752 166.08 572.216 166.128 570.68C166.224 569.144 166.32 567.728 166.416 566.432C165.456 566.48 164.424 566.624 163.32 566.864C162.264 567.056 161.232 567.296 160.224 567.584C159.216 567.872 158.28 568.208 157.416 568.592C156.552 568.928 155.856 569.264 155.328 569.6V586.52C156.096 586.568 157.056 586.736 158.208 587.024C159.36 587.312 160.392 587.624 161.304 587.96ZM196.523 595.304C195.611 594.632 194.483 594.008 193.139 593.432C191.795 592.856 190.403 592.376 188.963 591.992C187.571 591.56 186.203 591.224 184.859 590.984C183.563 590.744 182.483 590.624 181.619 590.624C182.003 590 182.339 589.136 182.627 588.032C182.915 586.88 183.131 585.656 183.275 584.36C183.467 583.016 183.587 581.648 183.635 580.256C183.731 578.864 183.779 577.592 183.779 576.44C183.779 573.512 183.587 571.088 183.203 569.168C182.867 567.2 182.531 565.664 182.195 564.56C184.259 564.176 186.131 563.432 187.811 562.328C189.539 561.224 191.243 559.832 192.923 558.152C194.891 558.536 197.315 558.872 200.195 559.16C203.075 559.4 205.931 559.568 208.763 559.664C208.619 560.528 208.547 561.608 208.547 562.904C208.547 563.912 208.595 565.016 208.691 566.216C208.787 567.368 208.907 568.52 209.051 569.672C209.195 570.824 209.387 571.928 209.627 572.984C209.867 574.04 210.131 574.952 210.419 575.72C207.491 575.96 204.515 576.296 201.491 576.728C198.467 577.112 195.515 577.544 192.635 578.024C192.587 579.416 192.491 580.784 192.347 582.128C192.203 583.472 192.083 584.648 191.987 585.656C192.563 585.896 193.283 586.112 194.147 586.304C195.059 586.496 196.019 586.688 197.027 586.88C198.035 587.024 199.019 587.168 199.979 587.312C200.939 587.408 201.755 587.48 202.427 587.528C202.667 586.04 203.243 584.768 204.155 583.712C205.115 582.656 206.723 581.792 208.979 581.12C208.931 581.696 208.907 582.272 208.907 582.848C208.907 583.376 208.907 583.904 208.907 584.432C208.907 586.064 208.955 587.36 209.051 588.32C209.195 589.232 209.435 590.144 209.771 591.056C208.859 591.152 207.779 591.344 206.531 591.632C205.283 591.872 204.035 592.208 202.787 592.64C201.539 593.024 200.339 593.432 199.187 593.864C198.083 594.344 197.195 594.824 196.523 595.304ZM191.915 564.632C192.155 566.648 192.323 568.424 192.419 569.96C192.563 571.496 192.659 572.912 192.707 574.208L201.131 572.12C200.891 571.16 200.675 570.152 200.483 569.096C200.339 568.04 200.267 566.96 200.267 565.856C199.163 565.856 197.819 565.76 196.235 565.568C194.699 565.328 193.259 565.016 191.915 564.632ZM227.047 566.216C229.111 564.872 230.959 563.528 232.591 562.184C234.223 560.84 235.903 559.256 237.631 557.432C238.447 558.2 239.191 558.896 239.863 559.52C240.535 560.096 241.207 560.624 241.879 561.104C242.599 561.584 243.343 562.064 244.111 562.544C244.879 562.976 245.767 563.432 246.775 563.912C246.583 564.584 246.415 565.304 246.271 566.072C246.175 566.792 246.079 567.728 245.983 568.88C245.935 570.032 245.887 571.448 245.839 573.128C245.791 574.808 245.767 576.896 245.767 579.392C245.767 581.504 245.767 583.256 245.767 584.648C245.815 585.992 245.863 587.096 245.911 587.96C245.959 588.824 246.031 589.544 246.127 590.12C246.223 590.648 246.319 591.152 246.415 591.632C245.455 591.968 244.471 592.424 243.463 593C242.503 593.576 241.519 594.224 240.511 594.944C239.551 595.664 238.639 596.408 237.775 597.176C236.911 597.944 236.143 598.688 235.471 599.408L235.039 598.976C235.327 598.016 235.591 596.816 235.831 595.376C236.071 593.984 236.263 592.592 236.407 591.2C236.551 589.76 236.671 588.44 236.767 587.24C236.863 586.04 236.911 585.176 236.911 584.648C236.911 581.912 236.887 579.176 236.839 576.44C236.839 573.704 236.839 570.968 236.839 568.232L235.903 567.224L227.047 571.184V586.664C227.047 589.688 227.695 591.44 228.991 591.92V593H215.743V591.92C216.319 591.68 216.775 591.2 217.111 590.48C217.495 589.712 217.687 588.656 217.687 587.312V562.184L215.023 561.032V560.24C216.703 560 218.527 559.688 220.495 559.304C222.463 558.872 224.215 558.464 225.751 558.08L227.047 560.24V566.216ZM271 595.232C270.136 594.704 268.96 594.152 267.472 593.576C265.984 593.048 264.352 592.568 262.576 592.136C260.848 591.704 259.096 591.344 257.32 591.056C255.544 590.768 253.936 590.624 252.496 590.624C252.832 590.144 253.12 589.424 253.36 588.464C253.648 587.504 253.888 586.4 254.08 585.152C254.272 583.856 254.416 582.464 254.512 580.976C254.608 579.488 254.656 577.952 254.656 576.368C254.656 573.776 254.512 571.352 254.224 569.096C253.984 566.792 253.6 564.8 253.072 563.12C255.664 562.688 258.328 562.04 261.064 561.176C263.8 560.264 266.344 559.256 268.696 558.152C270.28 559.16 272.128 560.048 274.24 560.816C276.352 561.584 278.488 562.16 280.648 562.544C279.736 564.368 278.464 565.856 276.832 567.008C275.248 568.112 273.616 568.664 271.936 568.664C270.832 568.664 269.512 568.28 267.976 567.512C266.44 566.744 264.928 565.664 263.44 564.272C263.68 566.096 263.848 567.92 263.944 569.744C264.088 571.52 264.16 573.32 264.16 575.144C264.16 576.728 264.088 578.48 263.944 580.4C263.848 582.272 263.68 583.952 263.44 585.44C264.496 585.872 265.84 586.28 267.472 586.664C269.152 587.048 270.664 587.288 272.008 587.384C272.296 585.56 273.04 583.976 274.24 582.632C275.488 581.24 277.12 580.256 279.136 579.68C279.088 580.064 279.064 580.592 279.064 581.264C279.064 581.936 279.064 582.752 279.064 583.712C279.064 585.536 279.136 587 279.28 588.104C279.472 589.208 279.688 590.168 279.928 590.984C279.16 591.128 278.32 591.368 277.408 591.704C276.544 591.992 275.68 592.352 274.816 592.784C274 593.168 273.232 593.576 272.512 594.008C271.84 594.44 271.336 594.848 271 595.232ZM295.569 586.232C296.625 586.328 297.705 586.4 298.809 586.448C299.961 586.496 301.377 586.712 303.057 587.096V576.944C301.665 577.472 300.321 577.928 299.025 578.312C297.729 578.648 296.625 578.864 295.713 578.96L295.569 586.232ZM314.145 563.264C313.377 564.368 312.873 565.832 312.633 567.656C312.441 569.48 312.345 572.144 312.345 575.648C312.345 577.952 312.393 579.8 312.489 581.192C312.633 582.536 312.825 583.616 313.065 584.432C313.305 585.2 313.641 585.752 314.073 586.088C314.505 586.376 315.033 586.592 315.657 586.736V587.528C314.985 587.768 314.265 588.2 313.497 588.824C312.777 589.4 312.057 590.048 311.337 590.768C310.617 591.488 309.969 592.232 309.393 593C308.817 593.768 308.385 594.44 308.097 595.016C307.089 594.344 306.177 593.456 305.361 592.352C304.545 591.248 303.897 590.144 303.417 589.04L298.449 595.016C296.625 593.912 294.609 593.072 292.401 592.496C290.241 591.92 287.769 591.608 284.985 591.56C285.465 590.312 285.753 588.752 285.849 586.88C285.945 584.96 285.993 583.04 285.993 581.12C285.993 579.968 285.921 578.888 285.777 577.88C285.633 576.824 285.393 575.888 285.057 575.072C286.113 575.216 287.265 575.288 288.513 575.288C289.857 575.288 291.225 575.24 292.617 575.144C294.057 575 295.425 574.808 296.721 574.568C298.017 574.328 299.193 574.064 300.249 573.776C301.353 573.44 302.265 573.08 302.985 572.696V565.568C301.353 566.288 299.649 566.888 297.873 567.368C296.097 567.848 294.633 568.088 293.481 568.088C292.665 568.088 291.897 568.016 291.177 567.872C290.505 567.68 289.881 567.344 289.305 566.864C288.729 566.336 288.201 565.616 287.721 564.704C287.289 563.792 286.905 562.616 286.569 561.176C286.857 561.176 287.049 561.2 287.145 561.248C287.289 561.248 287.649 561.248 288.225 561.248C291.681 561.248 294.657 560.936 297.153 560.312C299.649 559.688 301.593 558.968 302.985 558.152C304.569 559.88 306.201 561.176 307.881 562.04C309.609 562.856 311.697 563.264 314.145 563.264ZM332.76 565.352V581.264C332.76 583.76 333.36 585.632 334.56 586.88C335.808 588.128 337.344 588.8 339.168 588.896V589.904C338.352 590.192 337.488 590.552 336.576 590.984C335.664 591.416 334.776 591.872 333.912 592.352C333.048 592.784 332.232 593.24 331.464 593.72C330.696 594.2 330.096 594.632 329.664 595.016C328.56 594.344 327.432 593.696 326.28 593.072C325.128 592.448 324.168 591.944 323.4 591.56V564.776H317.424V563.984C319.536 563.168 321.528 561.92 323.4 560.24V557.936C323.4 557.552 323.352 556.952 323.256 556.136C323.208 555.272 323.136 554.408 323.04 553.544C322.944 552.632 322.824 551.816 322.68 551.096C322.536 550.328 322.368 549.824 322.176 549.584C324.336 549.44 326.328 549.008 328.152 548.288C329.976 547.568 331.92 546.656 333.984 545.552C333.792 546.032 333.624 546.776 333.48 547.784C333.336 548.792 333.192 549.872 333.048 551.024C332.952 552.128 332.88 553.208 332.832 554.264C332.784 555.272 332.76 555.992 332.76 556.424V560.24H342.912V560.528C342.144 561.344 341.448 562.256 340.824 563.264C340.248 564.272 339.84 565.256 339.6 566.216L332.76 565.352ZM354.983 586.232C356.039 586.328 357.119 586.4 358.223 586.448C359.375 586.496 360.791 586.712 362.471 587.096V576.944C361.079 577.472 359.735 577.928 358.439 578.312C357.143 578.648 356.039 578.864 355.127 578.96L354.983 586.232ZM373.559 563.264C372.791 564.368 372.287 565.832 372.047 567.656C371.855 569.48 371.759 572.144 371.759 575.648C371.759 577.952 371.807 579.8 371.903 581.192C372.047 582.536 372.239 583.616 372.479 584.432C372.719 585.2 373.055 585.752 373.487 586.088C373.919 586.376 374.447 586.592 375.071 586.736V587.528C374.399 587.768 373.679 588.2 372.911 588.824C372.191 589.4 371.471 590.048 370.751 590.768C370.031 591.488 369.383 592.232 368.807 593C368.231 593.768 367.799 594.44 367.511 595.016C366.503 594.344 365.591 593.456 364.775 592.352C363.959 591.248 363.311 590.144 362.831 589.04L357.863 595.016C356.039 593.912 354.023 593.072 351.815 592.496C349.655 591.92 347.183 591.608 344.399 591.56C344.879 590.312 345.167 588.752 345.263 586.88C345.359 584.96 345.407 583.04 345.407 581.12C345.407 579.968 345.335 578.888 345.191 577.88C345.047 576.824 344.807 575.888 344.471 575.072C345.527 575.216 346.679 575.288 347.927 575.288C349.271 575.288 350.639 575.24 352.031 575.144C353.471 575 354.839 574.808 356.135 574.568C357.431 574.328 358.607 574.064 359.663 573.776C360.767 573.44 361.679 573.08 362.399 572.696V565.568C360.767 566.288 359.063 566.888 357.287 567.368C355.511 567.848 354.047 568.088 352.895 568.088C352.079 568.088 351.311 568.016 350.591 567.872C349.919 567.68 349.295 567.344 348.719 566.864C348.143 566.336 347.615 565.616 347.135 564.704C346.703 563.792 346.319 562.616 345.983 561.176C346.271 561.176 346.463 561.2 346.559 561.248C346.703 561.248 347.063 561.248 347.639 561.248C351.095 561.248 354.071 560.936 356.567 560.312C359.063 559.688 361.007 558.968 362.399 558.152C363.983 559.88 365.615 561.176 367.295 562.04C369.023 562.856 371.111 563.264 373.559 563.264ZM392.174 565.352V581.264C392.174 583.76 392.774 585.632 393.974 586.88C395.222 588.128 396.758 588.8 398.582 588.896V589.904C397.766 590.192 396.902 590.552 395.99 590.984C395.078 591.416 394.19 591.872 393.326 592.352C392.462 592.784 391.646 593.24 390.878 593.72C390.11 594.2 389.51 594.632 389.078 595.016C387.974 594.344 386.846 593.696 385.694 593.072C384.542 592.448 383.582 591.944 382.814 591.56V564.776H376.838V563.984C378.95 563.168 380.942 561.92 382.814 560.24V557.936C382.814 557.552 382.766 556.952 382.67 556.136C382.622 555.272 382.55 554.408 382.454 553.544C382.358 552.632 382.238 551.816 382.094 551.096C381.95 550.328 381.782 549.824 381.59 549.584C383.75 549.44 385.742 549.008 387.566 548.288C389.39 547.568 391.334 546.656 393.398 545.552C393.206 546.032 393.038 546.776 392.894 547.784C392.75 548.792 392.606 549.872 392.462 551.024C392.366 552.128 392.294 553.208 392.246 554.264C392.198 555.272 392.174 555.992 392.174 556.424V560.24H402.326V560.528C401.558 561.344 400.862 562.256 400.238 563.264C399.662 564.272 399.254 565.256 399.014 566.216L392.174 565.352ZM422.577 578.888C422.577 576.248 422.529 574.136 422.433 572.552C422.337 570.92 422.145 569.672 421.857 568.808C421.617 567.896 421.281 567.272 420.849 566.936C420.465 566.552 419.961 566.264 419.337 566.072V565.28C419.961 565.04 420.657 564.632 421.425 564.056C422.193 563.432 422.937 562.76 423.657 562.04C424.377 561.32 425.025 560.576 425.601 559.808C426.177 559.04 426.609 558.368 426.897 557.792C427.905 558.464 428.817 559.352 429.633 560.456C430.449 561.56 431.097 562.664 431.577 563.768C432.441 563.192 433.425 562.616 434.529 562.04C435.633 561.464 436.785 560.936 437.985 560.456C439.233 559.928 440.481 559.472 441.729 559.088C443.025 558.656 444.297 558.296 445.545 558.008C446.697 559.256 447.945 560.288 449.289 561.104C450.633 561.92 452.001 562.52 453.393 562.904C452.865 564.92 452.553 566.84 452.457 568.664C452.361 570.44 452.313 572.24 452.313 574.064C452.313 576.32 452.337 578.288 452.385 579.968C452.433 581.648 452.505 583.088 452.601 584.288C452.697 585.488 452.817 586.472 452.961 587.24C453.105 587.96 453.297 588.536 453.537 588.968C451.377 589.352 449.169 590.096 446.913 591.2C444.705 592.256 442.497 593.552 440.289 595.088C438.801 594.464 437.385 593.984 436.041 593.648C434.745 593.312 433.377 593.072 431.937 592.928V600.2C431.937 601.448 431.961 602.528 432.009 603.44C432.105 604.4 432.225 605.288 432.369 606.104C432.513 606.968 432.729 607.76 433.017 608.48C433.305 609.248 433.665 610.04 434.097 610.856C433.137 610.52 432.009 610.352 430.713 610.352C429.129 610.352 427.449 610.616 425.673 611.144C423.945 611.672 422.073 612.416 420.057 613.376C421.017 612.224 421.665 610.688 422.001 608.768C422.385 606.848 422.577 604.64 422.577 602.144V578.888ZM437.913 587.96C438.489 587.432 439.257 586.856 440.217 586.232C441.225 585.56 442.113 585.056 442.881 584.72C442.785 583.664 442.713 582.248 442.665 580.472C442.665 578.648 442.665 576.92 442.665 575.288C442.665 573.752 442.689 572.216 442.737 570.68C442.833 569.144 442.929 567.728 443.025 566.432C442.065 566.48 441.033 566.624 439.929 566.864C438.873 567.056 437.841 567.296 436.833 567.584C435.825 567.872 434.889 568.208 434.025 568.592C433.161 568.928 432.465 569.264 431.937 569.6V586.52C432.705 586.568 433.665 586.736 434.817 587.024C435.969 587.312 437.001 587.624 437.913 587.96ZM470.397 560.24V586.664C470.397 589.688 471.045 591.44 472.341 591.92V593C470.805 593.24 469.365 593.528 468.021 593.864C466.677 594.2 465.285 594.584 463.845 595.016H463.485C461.853 592.808 461.037 590.216 461.037 587.24V562.184L458.373 561.032V560.24C460.053 560 461.877 559.688 463.845 559.304C465.813 558.872 467.565 558.464 469.101 558.08L470.397 560.24ZM459.021 546.2C459.837 544.808 460.821 543.44 461.973 542.096C463.173 540.704 464.493 539.624 465.933 538.856C466.221 539.24 466.653 539.696 467.229 540.224C467.853 540.752 468.501 541.28 469.173 541.808C469.893 542.336 470.565 542.84 471.189 543.32C471.861 543.752 472.365 544.064 472.701 544.256C471.069 545.408 469.677 546.536 468.525 547.64C467.421 548.696 466.461 550.04 465.645 551.672C465.357 551.336 464.901 550.928 464.277 550.448C463.701 549.92 463.077 549.392 462.405 548.864C461.733 548.336 461.085 547.832 460.461 547.352C459.837 546.872 459.357 546.488 459.021 546.2ZM489.523 566.216C491.587 564.872 493.435 563.528 495.067 562.184C496.699 560.84 498.379 559.256 500.107 557.432C500.923 558.2 501.667 558.896 502.339 559.52C503.011 560.096 503.683 560.624 504.355 561.104C505.075 561.584 505.819 562.064 506.587 562.544C507.355 562.976 508.243 563.432 509.251 563.912C509.059 564.584 508.891 565.304 508.747 566.072C508.651 566.792 508.555 567.728 508.459 568.88C508.411 570.032 508.363 571.448 508.315 573.128C508.267 574.808 508.243 576.896 508.243 579.392C508.243 581.504 508.243 583.256 508.243 584.648C508.291 585.992 508.339 587.096 508.387 587.96C508.435 588.824 508.507 589.544 508.603 590.12C508.699 590.648 508.795 591.152 508.891 591.632C507.931 591.968 506.947 592.424 505.939 593C504.979 593.576 503.995 594.224 502.987 594.944C502.027 595.664 501.115 596.408 500.251 597.176C499.387 597.944 498.619 598.688 497.947 599.408L497.515 598.976C497.803 598.016 498.067 596.816 498.307 595.376C498.547 593.984 498.739 592.592 498.883 591.2C499.027 589.76 499.147 588.44 499.243 587.24C499.339 586.04 499.387 585.176 499.387 584.648C499.387 581.912 499.363 579.176 499.315 576.44C499.315 573.704 499.315 570.968 499.315 568.232L498.379 567.224L489.523 571.184V586.664C489.523 589.688 490.171 591.44 491.467 591.92V593H478.219V591.92C478.795 591.68 479.251 591.2 479.587 590.48C479.971 589.712 480.163 588.656 480.163 587.312V562.184L477.499 561.032V560.24C479.179 560 481.003 559.688 482.971 559.304C484.939 558.872 486.691 558.464 488.227 558.08L489.523 560.24V566.216ZM510.796 611.792C512.524 609.344 513.965 606.896 515.117 604.448C516.269 602.048 517.157 599.48 517.781 596.744V562.184L515.117 561.032V560.24C516.797 560 518.621 559.688 520.589 559.304C522.557 558.872 524.309 558.464 525.845 558.08L527.141 560.24V587.384C527.141 589.544 527.141 591.392 527.141 592.928C527.189 594.416 527.285 595.664 527.429 596.672C527.573 597.728 527.765 598.568 528.005 599.192C528.245 599.816 528.581 600.344 529.013 600.776V601.064C528.005 601.4 526.877 601.928 525.629 602.648C524.381 603.368 523.061 604.232 521.669 605.24C520.325 606.296 518.933 607.496 517.493 608.84C516.053 610.232 514.661 611.744 513.317 613.376L510.796 611.792ZM515.765 546.2C516.581 544.808 517.565 543.44 518.717 542.096C519.917 540.704 521.237 539.624 522.677 538.856C522.965 539.24 523.397 539.696 523.973 540.224C524.597 540.752 525.245 541.28 525.917 541.808C526.637 542.336 527.309 542.84 527.933 543.32C528.605 543.752 529.109 544.064 529.445 544.256C527.813 545.408 526.421 546.536 525.269 547.64C524.165 548.696 523.205 550.04 522.389 551.672C522.101 551.336 521.645 550.928 521.021 550.448C520.445 549.92 519.821 549.392 519.149 548.864C518.477 548.336 517.829 547.832 517.205 547.352C516.581 546.872 516.101 546.488 515.765 546.2ZM544.898 586.232C545.954 586.328 547.034 586.4 548.138 586.448C549.29 586.496 550.706 586.712 552.386 587.096V576.944C550.994 577.472 549.65 577.928 548.354 578.312C547.058 578.648 545.954 578.864 545.042 578.96L544.898 586.232ZM563.474 563.264C562.706 564.368 562.202 565.832 561.962 567.656C561.77 569.48 561.674 572.144 561.674 575.648C561.674 577.952 561.722 579.8 561.818 581.192C561.962 582.536 562.154 583.616 562.394 584.432C562.634 585.2 562.97 585.752 563.402 586.088C563.834 586.376 564.362 586.592 564.986 586.736V587.528C564.314 587.768 563.594 588.2 562.826 588.824C562.106 589.4 561.386 590.048 560.666 590.768C559.946 591.488 559.298 592.232 558.722 593C558.146 593.768 557.714 594.44 557.426 595.016C556.418 594.344 555.506 593.456 554.69 592.352C553.874 591.248 553.226 590.144 552.746 589.04L547.778 595.016C545.954 593.912 543.938 593.072 541.73 592.496C539.57 591.92 537.098 591.608 534.313 591.56C534.794 590.312 535.082 588.752 535.178 586.88C535.274 584.96 535.322 583.04 535.322 581.12C535.322 579.968 535.25 578.888 535.106 577.88C534.962 576.824 534.722 575.888 534.386 575.072C535.442 575.216 536.594 575.288 537.842 575.288C539.186 575.288 540.554 575.24 541.946 575.144C543.386 575 544.754 574.808 546.05 574.568C547.346 574.328 548.522 574.064 549.578 573.776C550.682 573.44 551.594 573.08 552.314 572.696V565.568C550.682 566.288 548.978 566.888 547.202 567.368C545.426 567.848 543.962 568.088 542.81 568.088C541.994 568.088 541.226 568.016 540.506 567.872C539.834 567.68 539.21 567.344 538.634 566.864C538.058 566.336 537.53 565.616 537.05 564.704C536.618 563.792 536.234 562.616 535.898 561.176C536.186 561.176 536.378 561.2 536.474 561.248C536.618 561.248 536.978 561.248 537.554 561.248C541.01 561.248 543.986 560.936 546.482 560.312C548.978 559.688 550.922 558.968 552.314 558.152C553.898 559.88 555.53 561.176 557.21 562.04C558.938 562.856 561.026 563.264 563.474 563.264ZM605.848 598.976C606.136 598.016 606.4 596.816 606.64 595.376C606.88 593.984 607.072 592.592 607.216 591.2C607.36 589.76 607.48 588.44 607.576 587.24C607.672 586.04 607.72 585.176 607.72 584.648C607.72 581.912 607.696 579.176 607.648 576.44C607.648 573.704 607.648 570.968 607.648 568.232L606.712 567.224L598.648 570.68C598.6 571.736 598.576 573.128 598.576 574.856C598.576 576.584 598.576 578.336 598.576 580.112V586.664C598.576 589.688 599.224 591.44 600.52 591.92V593H587.704V591.92C588.28 591.68 588.736 591.2 589.072 590.48C589.456 589.712 589.648 588.656 589.648 587.312V568.232L588.712 567.224L580.72 570.68V586.664C580.72 589.688 581.368 591.44 582.664 591.92V593H569.416V591.92C569.992 591.68 570.448 591.2 570.784 590.48C571.168 589.712 571.36 588.656 571.36 587.312V562.184L568.696 561.032V560.24C570.376 560 572.2 559.688 574.168 559.304C576.136 558.872 577.888 558.464 579.424 558.08L580.72 560.24V566.144C582.592 564.8 584.272 563.48 585.76 562.184C587.296 560.84 588.856 559.256 590.44 557.432C591.256 558.2 592 558.896 592.672 559.52C593.344 560.096 594.016 560.624 594.688 561.104C595.408 561.584 596.152 562.064 596.92 562.544C597.688 562.976 598.576 563.432 599.584 563.912L599.152 565.856C600.928 564.56 602.536 563.264 603.976 561.968C605.416 560.672 606.904 559.16 608.44 557.432C609.256 558.2 610 558.896 610.672 559.52C611.344 560.096 612.016 560.624 612.688 561.104C613.408 561.584 614.152 562.064 614.92 562.544C615.688 562.976 616.576 563.432 617.584 563.912C617.392 564.584 617.224 565.304 617.08 566.072C616.984 566.792 616.888 567.728 616.792 568.88C616.744 570.032 616.696 571.448 616.648 573.128C616.6 574.808 616.576 576.896 616.576 579.392C616.576 581.504 616.576 583.256 616.576 584.648C616.624 585.992 616.672 587.096 616.72 587.96C616.768 588.824 616.84 589.544 616.936 590.12C617.032 590.648 617.128 591.152 617.224 591.632C616.264 591.968 615.28 592.424 614.272 593C613.312 593.576 612.328 594.224 611.32 594.944C610.36 595.664 609.448 596.408 608.584 597.176C607.72 597.944 606.952 598.688 606.28 599.408L605.848 598.976ZM633.913 586.232C634.969 586.328 636.049 586.4 637.153 586.448C638.305 586.496 639.721 586.712 641.401 587.096V576.944C640.009 577.472 638.665 577.928 637.369 578.312C636.073 578.648 634.969 578.864 634.057 578.96L633.913 586.232ZM652.489 563.264C651.721 564.368 651.217 565.832 650.977 567.656C650.785 569.48 650.689 572.144 650.689 575.648C650.689 577.952 650.737 579.8 650.833 581.192C650.977 582.536 651.169 583.616 651.409 584.432C651.649 585.2 651.985 585.752 652.417 586.088C652.849 586.376 653.377 586.592 654.001 586.736V587.528C653.329 587.768 652.609 588.2 651.841 588.824C651.121 589.4 650.401 590.048 649.681 590.768C648.961 591.488 648.313 592.232 647.737 593C647.161 593.768 646.729 594.44 646.441 595.016C645.433 594.344 644.521 593.456 643.705 592.352C642.889 591.248 642.241 590.144 641.761 589.04L636.793 595.016C634.969 593.912 632.953 593.072 630.745 592.496C628.585 591.92 626.113 591.608 623.329 591.56C623.809 590.312 624.097 588.752 624.193 586.88C624.289 584.96 624.337 583.04 624.337 581.12C624.337 579.968 624.265 578.888 624.121 577.88C623.977 576.824 623.737 575.888 623.401 575.072C624.457 575.216 625.609 575.288 626.857 575.288C628.201 575.288 629.569 575.24 630.961 575.144C632.401 575 633.769 574.808 635.065 574.568C636.361 574.328 637.537 574.064 638.593 573.776C639.697 573.44 640.609 573.08 641.329 572.696V565.568C639.697 566.288 637.993 566.888 636.217 567.368C634.441 567.848 632.977 568.088 631.825 568.088C631.009 568.088 630.241 568.016 629.521 567.872C628.849 567.68 628.225 567.344 627.649 566.864C627.073 566.336 626.545 565.616 626.065 564.704C625.633 563.792 625.249 562.616 624.913 561.176C625.201 561.176 625.393 561.2 625.489 561.248C625.633 561.248 625.993 561.248 626.569 561.248C630.025 561.248 633.001 560.936 635.497 560.312C637.993 559.688 639.937 558.968 641.329 558.152C642.913 559.88 644.545 561.176 646.225 562.04C647.953 562.856 650.041 563.264 652.489 563.264ZM669.664 566.216C671.728 564.872 673.576 563.528 675.208 562.184C676.84 560.84 678.52 559.256 680.248 557.432C681.064 558.2 681.808 558.896 682.48 559.52C683.152 560.096 683.824 560.624 684.496 561.104C685.216 561.584 685.96 562.064 686.728 562.544C687.496 562.976 688.384 563.432 689.392 563.912C689.2 564.584 689.032 565.304 688.888 566.072C688.792 566.792 688.696 567.728 688.6 568.88C688.552 570.032 688.504 571.448 688.456 573.128C688.408 574.808 688.384 576.896 688.384 579.392C688.384 581.504 688.384 583.256 688.384 584.648C688.432 585.992 688.48 587.096 688.528 587.96C688.576 588.824 688.648 589.544 688.744 590.12C688.84 590.648 688.936 591.152 689.032 591.632C688.072 591.968 687.088 592.424 686.08 593C685.12 593.576 684.136 594.224 683.128 594.944C682.168 595.664 681.256 596.408 680.392 597.176C679.528 597.944 678.76 598.688 678.088 599.408L677.656 598.976C677.944 598.016 678.208 596.816 678.448 595.376C678.688 593.984 678.88 592.592 679.024 591.2C679.168 589.76 679.288 588.44 679.384 587.24C679.48 586.04 679.528 585.176 679.528 584.648C679.528 581.912 679.504 579.176 679.456 576.44C679.456 573.704 679.456 570.968 679.456 568.232L678.52 567.224L669.664 571.184V586.664C669.664 589.688 670.312 591.44 671.608 591.92V593H658.36V591.92C658.936 591.68 659.392 591.2 659.728 590.48C660.112 589.712 660.304 588.656 660.304 587.312V562.184L657.64 561.032V560.24C659.32 560 661.144 559.688 663.112 559.304C665.08 558.872 666.832 558.464 668.368 558.08L669.664 560.24V566.216ZM729.861 588.032C730.389 587.504 731.061 586.928 731.877 586.304C732.693 585.632 733.437 585.128 734.109 584.792C734.013 583.736 733.941 582.32 733.893 580.544C733.893 578.72 733.893 576.992 733.893 575.36C733.893 573.824 733.917 572.288 733.965 570.752C734.061 569.216 734.157 567.8 734.253 566.504C733.245 566.552 732.189 566.696 731.085 566.936C730.029 567.128 728.997 567.368 727.989 567.656C726.981 567.944 726.045 568.28 725.181 568.664C724.317 569 723.621 569.336 723.093 569.672V573.992C723.093 576.632 723.045 579.056 722.949 581.264C722.901 583.472 722.733 585.248 722.445 586.592C723.357 586.64 724.557 586.808 726.045 587.096C727.533 587.384 728.805 587.696 729.861 588.032ZM713.733 549.44C713.733 548.24 713.709 547.16 713.661 546.2C713.613 545.24 713.493 544.352 713.301 543.536C713.157 542.72 712.941 541.928 712.653 541.16C712.365 540.392 712.005 539.6 711.573 538.784C712.533 539.12 713.661 539.288 714.957 539.288C716.541 539.288 718.197 539.024 719.925 538.496C721.701 537.968 723.597 537.224 725.613 536.264C724.653 537.416 723.981 538.952 723.597 540.872C723.261 542.792 723.093 545 723.093 547.496V564.128C723.957 563.552 724.917 562.976 725.973 562.4C727.029 561.776 728.157 561.2 729.357 560.672C730.557 560.096 731.781 559.592 733.029 559.16C734.277 558.728 735.525 558.368 736.773 558.08C737.925 559.328 739.173 560.36 740.517 561.176C741.861 561.992 743.229 562.592 744.621 562.976C744.093 564.992 743.781 566.912 743.685 568.736C743.589 570.512 743.541 572.312 743.541 574.136C743.541 576.392 743.565 578.36 743.613 580.04C743.661 581.72 743.733 583.16 743.829 584.36C743.925 585.56 744.045 586.544 744.189 587.312C744.333 588.032 744.525 588.608 744.765 589.04C743.709 589.232 742.557 589.52 741.309 589.904C740.061 590.288 738.789 590.744 737.493 591.272C736.197 591.8 734.901 592.376 733.605 593C732.357 593.672 731.181 594.392 730.077 595.16C727.917 594.488 725.853 593.912 723.885 593.432C721.917 593 720.165 592.784 718.629 592.784C717.573 592.784 716.373 592.88 715.029 593.072C713.733 593.264 712.581 593.552 711.573 593.936C712.437 592.352 713.013 590.024 713.301 586.952C713.589 583.88 713.733 579.68 713.733 574.352V549.44ZM748.671 561.104C749.679 561.008 750.807 560.864 752.055 560.672C753.303 560.432 754.551 560.168 755.799 559.88C757.047 559.592 758.199 559.304 759.255 559.016C760.311 558.68 761.151 558.368 761.775 558.08C761.679 558.896 761.583 559.64 761.487 560.312C761.439 560.984 761.391 561.704 761.343 562.472C761.343 563.24 761.319 564.08 761.271 564.992C761.271 565.904 761.271 566.984 761.271 568.232V582.776L764.295 585.08L771.207 582.056V570.824C771.207 569.192 771.159 567.848 771.063 566.792C771.015 565.736 770.871 564.896 770.631 564.272C770.391 563.648 770.055 563.192 769.623 562.904C769.239 562.568 768.687 562.304 767.967 562.112V561.176C770.271 561.032 772.527 560.696 774.735 560.168C776.991 559.64 778.935 558.968 780.567 558.152V575.144C780.567 577.4 780.615 579.248 780.711 580.688C780.807 582.08 780.975 583.208 781.215 584.072C781.455 584.936 781.767 585.56 782.151 585.944C782.583 586.328 783.135 586.592 783.807 586.736V587.528C783.183 587.816 782.487 588.248 781.719 588.824C780.951 589.4 780.207 590.048 779.487 590.768C778.767 591.488 778.119 592.232 777.543 593C776.967 593.72 776.535 594.392 776.247 595.016C774.663 593.672 773.511 592.424 772.791 591.272C772.119 590.12 771.663 588.704 771.423 587.024C769.983 587.744 768.711 588.416 767.607 589.04C766.551 589.664 765.567 590.288 764.655 590.912C763.791 591.536 762.975 592.184 762.207 592.856C761.487 593.528 760.743 594.248 759.975 595.016C759.015 594.152 758.151 593.432 757.383 592.856C756.663 592.232 755.943 591.68 755.223 591.2C754.551 590.72 753.855 590.288 753.135 589.904C752.463 589.472 751.695 589.016 750.831 588.536C751.023 588.248 751.191 587.6 751.335 586.592C751.527 585.584 751.695 584.36 751.839 582.92C751.983 581.48 752.079 579.944 752.127 578.312C752.223 576.632 752.271 575.024 752.271 573.488C752.271 571.76 752.199 570.272 752.055 569.024C751.959 567.728 751.767 566.624 751.479 565.712C751.191 564.8 750.807 564.056 750.327 563.48C749.895 562.856 749.319 562.328 748.599 561.896L748.671 561.104ZM807.299 598.616C807.539 597.992 807.755 597.224 807.947 596.312C808.187 595.4 808.379 594.44 808.523 593.432C808.667 592.424 808.787 591.392 808.883 590.336C808.979 589.28 809.027 588.296 809.027 587.384V581.408C807.587 580.4 806.123 579.512 804.635 578.744C803.147 577.928 801.563 577.184 799.883 576.512V586.664C799.883 589.688 800.531 591.44 801.827 591.92V593H788.579V591.92C789.875 591.44 790.523 589.904 790.523 587.312V549.44C790.523 548.144 790.475 546.992 790.379 545.984C790.331 544.976 790.211 544.064 790.019 543.248C789.875 542.432 789.659 541.664 789.371 540.944C789.131 540.224 788.795 539.504 788.363 538.784C789.227 539.12 790.355 539.288 791.747 539.288C793.235 539.288 794.843 539.048 796.571 538.568C798.299 538.088 800.243 537.32 802.403 536.264C801.539 537.32 800.891 538.736 800.459 540.512C800.075 542.288 799.883 544.616 799.883 547.496V562.472C800.891 561.8 801.899 561.032 802.907 560.168C803.915 559.304 805.043 558.248 806.291 557C807.731 557.96 809.363 558.776 811.187 559.448C813.059 560.072 815.291 560.648 817.883 561.176C817.451 562.568 817.235 564.248 817.235 566.216C817.235 566.744 817.259 567.416 817.307 568.232C817.355 569.048 817.427 569.648 817.523 570.032L806.867 574.064V574.352C809.459 574.88 811.691 575.528 813.563 576.296C815.483 577.064 817.259 577.928 818.891 578.888C818.699 579.896 818.555 580.904 818.459 581.912C818.411 582.92 818.387 584.096 818.387 585.44C818.387 588.176 818.555 590.312 818.891 591.848C817.931 592.28 816.923 592.784 815.867 593.36C814.811 593.936 813.779 594.536 812.771 595.16C811.763 595.784 810.827 596.408 809.963 597.032C809.147 597.656 808.451 598.256 807.875 598.832L807.299 598.616ZM799.883 573.488L810.899 569.024L810.755 566.648L799.883 564.488V573.488ZM822.921 561.104C823.929 561.008 825.057 560.864 826.305 560.672C827.553 560.432 828.801 560.168 830.049 559.88C831.297 559.592 832.449 559.304 833.505 559.016C834.561 558.68 835.401 558.368 836.025 558.08C835.929 558.896 835.833 559.64 835.737 560.312C835.689 560.984 835.641 561.704 835.593 562.472C835.593 563.24 835.569 564.08 835.521 564.992C835.521 565.904 835.521 566.984 835.521 568.232V582.776L838.545 585.08L845.457 582.056V570.824C845.457 569.192 845.409 567.848 845.313 566.792C845.265 565.736 845.121 564.896 844.881 564.272C844.641 563.648 844.305 563.192 843.873 562.904C843.489 562.568 842.937 562.304 842.217 562.112V561.176C844.521 561.032 846.777 560.696 848.985 560.168C851.241 559.64 853.185 558.968 854.817 558.152V575.144C854.817 577.4 854.865 579.248 854.961 580.688C855.057 582.08 855.225 583.208 855.465 584.072C855.705 584.936 856.017 585.56 856.401 585.944C856.833 586.328 857.385 586.592 858.057 586.736V587.528C857.433 587.816 856.737 588.248 855.969 588.824C855.201 589.4 854.457 590.048 853.737 590.768C853.017 591.488 852.369 592.232 851.793 593C851.217 593.72 850.785 594.392 850.497 595.016C848.913 593.672 847.761 592.424 847.041 591.272C846.369 590.12 845.913 588.704 845.673 587.024C844.233 587.744 842.961 588.416 841.857 589.04C840.801 589.664 839.817 590.288 838.905 590.912C838.041 591.536 837.225 592.184 836.457 592.856C835.737 593.528 834.993 594.248 834.225 595.016C833.265 594.152 832.401 593.432 831.633 592.856C830.913 592.232 830.193 591.68 829.473 591.2C828.801 590.72 828.105 590.288 827.385 589.904C826.713 589.472 825.945 589.016 825.081 588.536C825.273 588.248 825.441 587.6 825.585 586.592C825.777 585.584 825.945 584.36 826.089 582.92C826.233 581.48 826.329 579.944 826.377 578.312C826.473 576.632 826.521 575.024 826.521 573.488C826.521 571.76 826.449 570.272 826.305 569.024C826.209 567.728 826.017 566.624 825.729 565.712C825.441 564.8 825.057 564.056 824.577 563.48C824.145 562.856 823.569 562.328 822.849 561.896L822.921 561.104Z" fill="black"/>
<rect x="345" y="122" width="40" height="394" fill="#326A7B"/>
<rect x="413" y="122" width="73" height="394" fill="#F2F700"/>
<rect x="514" y="122" width="129" height="394" fill="#34A48D"/>
<rect x="671" y="122" width="44" height="394" fill="#CF452B"/>
<path d="M384.157 370.586C383.034 370.195 380.617 370 376.906 370H339.26C336.721 370 334.694 369.609 333.181 368.828C331.667 367.998 330.91 366.509 330.91 364.36C330.91 362.798 331.276 361.553 332.009 360.625C333.864 361.113 335.646 361.357 337.355 361.357C339.064 361.357 340.407 361.187 341.384 360.845C342.36 360.454 343.215 359.795 343.947 358.867C345.412 356.914 346.145 353.667 346.145 349.126V275.591C346.145 271.05 343.459 268.218 338.088 267.095C334.719 266.411 332.521 265.63 331.496 264.751C330.471 263.872 329.958 262.92 329.958 261.895C329.958 259.648 330.349 258.135 331.13 257.354C332.009 257.598 332.814 257.72 333.547 257.72H351.711L377.785 256.987C400.637 256.987 415.09 263.213 421.145 275.664C423.342 280.156 424.44 284.648 424.44 289.141C424.44 293.633 424.123 297.466 423.488 300.64C422.854 303.813 421.755 306.914 420.192 309.941C418.679 312.92 416.652 315.752 414.113 318.438C411.574 321.074 408.4 323.394 404.592 325.396C396.34 329.692 385.793 331.841 372.951 331.841H370.168C368.801 331.841 368.117 330.962 368.117 329.204C368.117 325.347 369.167 323.174 371.267 322.686C389.626 323.076 400.734 317.607 404.592 306.279C405.764 302.715 406.35 298.906 406.35 294.854C406.35 290.801 405.91 287.09 405.031 283.721C404.152 280.303 402.565 277.275 400.271 274.639C395.192 268.877 386.794 265.996 375.075 265.996C370.339 265.996 367.189 267.021 365.627 269.072C364.162 270.879 363.43 274.541 363.43 280.059V353.228C363.674 357.036 366.701 359.355 372.512 360.186C377.736 360.918 380.983 361.602 382.253 362.236C383.522 362.871 384.353 363.506 384.743 364.141C385.134 364.727 385.329 365.459 385.329 366.338C385.329 368.193 384.938 369.609 384.157 370.586Z" fill="black"/>
<path d="M516.157 370.586C515.034 370.195 512.617 370 508.906 370H471.26C468.721 370 466.694 369.609 465.181 368.828C463.667 367.998 462.91 366.509 462.91 364.36C462.91 362.798 463.276 361.553 464.009 360.625C465.864 361.113 467.646 361.357 469.355 361.357C471.064 361.357 472.407 361.187 473.384 360.845C474.36 360.454 475.215 359.795 475.947 358.867C477.412 356.914 478.145 353.667 478.145 349.126V275.591C478.145 271.05 475.459 268.218 470.088 267.095C466.719 266.411 464.521 265.63 463.496 264.751C462.471 263.872 461.958 262.92 461.958 261.895C461.958 259.648 462.349 258.135 463.13 257.354C464.009 257.598 464.814 257.72 465.547 257.72H483.711L509.785 256.987C532.637 256.987 547.09 263.213 553.145 275.664C555.342 280.156 556.44 284.648 556.44 289.141C556.44 293.633 556.123 297.466 555.488 300.64C554.854 303.813 553.755 306.914 552.192 309.941C550.679 312.92 548.652 315.752 546.113 318.438C543.574 321.074 540.4 323.394 536.592 325.396C528.34 329.692 517.793 331.841 504.951 331.841H502.168C500.801 331.841 500.117 330.962 500.117 329.204C500.117 325.347 501.167 323.174 503.267 322.686C521.626 323.076 532.734 317.607 536.592 306.279C537.764 302.715 538.35 298.906 538.35 294.854C538.35 290.801 537.91 287.09 537.031 283.721C536.152 280.303 534.565 277.275 532.271 274.639C527.192 268.877 518.794 265.996 507.075 265.996C502.339 265.996 499.189 267.021 497.627 269.072C496.162 270.879 495.43 274.541 495.43 280.059V353.228C495.674 357.036 498.701 359.355 504.512 360.186C509.736 360.918 512.983 361.602 514.253 362.236C515.522 362.871 516.353 363.506 516.743 364.141C517.134 364.727 517.329 365.459 517.329 366.338C517.329 368.193 516.938 369.609 516.157 370.586Z" fill="black"/>
<path d="M648.568 370.732L624.252 369.927H605.722C603.183 369.927 601.059 369.512 599.35 368.682C597.641 367.803 596.786 366.729 596.786 365.459C596.786 363.115 597.152 361.479 597.885 360.552C599.545 361.04 601.303 361.284 603.158 361.284C605.014 361.284 606.527 361.162 607.699 360.918C608.92 360.674 609.994 360.161 610.922 359.38C613.07 357.622 614.145 354.57 614.145 350.225V275.591C614.145 271.05 611.386 268.218 605.868 267.095C602.353 266.362 600.082 265.581 599.057 264.751C598.08 263.872 597.592 262.92 597.592 261.895C597.592 259.648 597.982 258.135 598.764 257.354C599.643 257.598 600.473 257.72 601.254 257.72C601.254 257.72 608.505 257.72 623.007 257.72C625.253 257.72 628.28 257.598 632.089 257.354C635.946 257.109 641.293 256.987 648.129 256.987C655.014 256.987 661.166 257.622 666.586 258.892C672.055 260.161 676.547 261.943 680.062 264.238C686.801 268.682 690.17 274.932 690.17 282.988C690.17 292.168 686.312 299.59 678.598 305.254C675.717 307.354 672.03 309.16 667.538 310.674C681.942 311.846 691.195 317.363 695.297 327.227C696.566 330.4 697.201 334.185 697.201 338.579C697.201 342.925 696.2 347.148 694.198 351.25C692.196 355.303 689.169 358.77 685.116 361.65C676.718 367.705 664.535 370.732 648.568 370.732ZM631.21 307.744L642.27 307.817C644.467 307.817 647.079 307.817 650.106 307.817C653.183 307.817 656.186 307.28 659.115 306.206C662.045 305.083 664.486 303.594 666.439 301.738C670.443 297.93 672.445 293.047 672.445 287.09C672.445 280.303 670.785 275.322 667.465 272.148C663.559 268.291 656.796 266.362 647.177 266.362C640.634 266.362 636.557 266.973 634.945 268.193C633.383 269.414 632.357 270.854 631.869 272.515C631.43 274.126 631.21 276.25 631.21 278.887V307.744ZM648.861 317.485C640.902 317.485 635.019 317.534 631.21 317.632V352.349C631.21 357.28 634.433 360.039 640.878 360.625C642.88 360.771 645.663 360.845 649.228 360.845C652.792 360.845 656.527 360.479 660.434 359.746C664.34 359.014 667.709 357.769 670.541 356.011C676.449 352.3 679.403 346.416 679.403 338.359C679.403 324.443 669.223 317.485 648.861 317.485Z" fill="black"/>
</svg>
